<svg class="bta-logo bta-logo-city" width="671.1543" height="182.50195" viewBox="0 0 671.1543 182.50195" xmlns="http://www.w3.org/2000/svg">
  <defs>
    <linearGradient id="gradient1" x1="0%" y1="0%" x2="100%" y2="0%">
      <stop class="stop1 gradient-color2" offset="0%" stop-color="#5DCDF5" stop-opacity="1"/>
      <stop class="stop2 gradient-color1" offset="50%" stop-color="#F7A9B9" stop-opacity="1"/>
      <stop class="stop2 gradient-color2" offset="100%" stop-color="#5DCDF5" stop-opacity="1"/>
    </linearGradient>
  </defs>
  <rect id="background" fill="none" width="671.1543" height="182.50195" x="0" y="0"/>
  <g id="foreground">
    <path
      id="city"
      fill="url(#gradient1)"
      d="m 361.9414,10 -0.46875,6.85937 -0.46875,6.86133 -1.74414,1.92578 c -0.95885,1.05952 -2.61178,5.26238 -3.67383,9.33984 l -1.93164,7.41407 -0.0137,7.54882 c -0.008,4.15244 -0.35728,9.6291 -0.77735,12.16993 l -0.76367,4.62109 -3.91015,0.37891 -3.91016,0.38086 -0.0801,4.375 c -0.13304,7.33894 -0.53903,10.55725 -1.5332,12.12109 l -0.95117,1.49414 -4.30469,0.75781 c -5.10755,0.89982 -5.30081,1.05472 -5.48633,4.35352 l -0.14453,2.55469 -1.25,0.29687 -1.25,0.29688 -0.625,-15 -0.625,-15 -15,0.21484 -15,0.2168 -0.37695,6.3457 c -0.2078,3.49069 -0.56093,6.34766 -0.78321,6.34766 -0.22227,0 -3.5843,-1.40625 -7.4707,-3.125 -3.88635,-1.71875 -7.33011,-3.125 -7.65425,-3.125 -0.32415,0 -0.58984,3.42782 -0.58984,7.61718 l 0,7.61719 -2.5,0.6543 -2.5,0.65234 0,3.60547 0,3.60352 -1.17578,0 c -0.64692,0 -1.52432,-0.5625 -1.94922,-1.25 l -0.77344,-1.25 -3.67578,0 -3.67578,0 -0.18555,-32.1875 C 264.61695,41.98437 264.47634,26.375 264.40624,25 l -0.12695,-2.5 -17.89648,-0.34766 -17.89844,-0.34766 0.22851,2.22266 c 0.1256,1.22228 0.16504,17.55078 0.0859,36.28516 l -0.14449,34.0625 -1.74414,0 -1.74414,0 -0.81836,-5.3125 c -0.45061,-2.92188 -1.12204,-8.54688 -1.49219,-12.5 l -0.67383,-7.1875 -4.88867,0 -4.88867,0 0,-2.5 0,-2.5 -4.45703,0 c -2.45145,0 -5.5452,-0.58324 -6.875,-1.29493 l -2.41797,-1.29297 0,-7.45703 0,-7.45507 -16.875,0 -16.875,0 0,5.14648 0,5.14453 -2.8125,-0.875 c -2.321,-0.72226 -11.30565,-1.18448 -15,-0.77148 l -0.9375,0.10547 -0.28516,15.9375 -0.2832,15.9375 -0.6543,-37.15821 -0.65234,-37.15625 -16.5625,-0.58203 -16.5625,-0.58008 -0.22852,46.48828 L 110.69726,105 109.98046,77.5 109.26562,50 l -1.00391,-1.5625 -1.00586,-1.5625 -18.49804,0 -18.49805,0 -0.80273,7.68359 c -0.44169,4.22585 -0.80274,12.9446 -0.80274,19.375 l 0,11.69141 -1.875,0 -1.875,0 -0.25586,3.4375 C 64.50807,90.95313 64.0862,85.19229 63.71093,76.26171 L 63.02929,60.02539 56.85937,59.14453 c -3.39382,-0.4839 -6.62819,-0.59567 -7.1875,-0.25 l -1.01758,0.6289 0,17.05078 0,17.05079 -1.5,-1.5 c -0.825,-0.825 -2.5125,-1.5 -3.75,-1.5 l -2.25,0 0,-1.875 0,-1.875 -2.35351,0 -2.35547,0 -0.65235,-2.5 -0.65429,-2.5 -9.49219,0 -9.49219,0 0,12.4375 0,12.4375 -2.02734,1.13477 -2.02539,1.13476 -1.05078,30.41992 L 10,169.85938 l 1.09765,1.32226 1.0957,1.32031 324.48047,0 324.48047,-0.002 0,-27.8125 0,-27.8125 -2.5,0 -2.5,0 -0.11719,-15.3125 c -0.0647,-8.42187 -0.20538,-19.25 -0.3125,-24.0625 l -0.19531,-8.75 -6.25,-0.38672 -6.25,-0.38868 -1.1875,-1.17382 -1.1875,-1.17573 -7.16016,0 -7.16211,0 -1.93359,1.93554 -1.93555,1.93555 L 622.12109,47.24804 621.77929,25 l -16.25,0 -16.25,0 -0.33203,36.48046 -0.33008,36.48243 -3.4082,0.39258 -3.40821,0.39453 -0.24414,1.875 c -0.13406,1.03125 -0.65287,4.6875 -1.15429,8.125 l -0.91211,6.25 -0.97071,-5 c -0.53391,-2.75 -1.00326,-10.16948 -1.04296,-16.48828 l -0.0723,-11.48829 -1.25,-0.77343 -1.25,-0.77344 0,-4.92188 0,-4.92187 -4.375,-4.84375 c -2.40625,-2.66343 -4.375,-5.44952 -4.375,-6.19141 0,-0.74189 -0.91055,-1.8577 -2.02344,-2.48047 l -2.02344,-1.13281 0.88672,-5.49219 c 0.48777,-3.02073 1.15057,-12.46179 1.47266,-20.98047 l 0.58597,-15.48828 -1.32422,-1.32422 -1.32422,-1.32421 0,9.17382 0,9.17578 -2.1875,1.59571 -2.1875,1.5957 -0.625,19.79297 -0.625,19.79102 -3.75,0.004 c -2.0625,0.003 -4.45313,0.45815 -5.3125,1.01171 l -1.5625,1.00782 0,4.92578 0,4.92578 -3.125,0 -3.125,0 -0.13477,-2.1875 c -0.0745,-1.20313 -0.2151,-5.26999 -0.3125,-9.03711 l -0.17773,-6.84961 -2.1875,-0.42969 -2.1875,-0.42968 0,9.57031 0,9.57226 -1.5625,-0.51757 -1.5625,-0.51563 -0.36914,-9.04492 -0.36914,-9.04297 -2.13086,0.41992 -2.13086,0.41797 -0.0527,8.63867 -0.0527,8.63672 -1.45312,0.48438 -1.45313,0.48437 -0.36914,-9.14648 -0.36914,-9.14844 -1.875,0 -1.875,0 -0.36719,9.0625 -0.36719,9.0625 -1.14062,0 -1.14062,0 -0.36719,-9.04883 -0.36719,-9.04883 -2.1875,-0.41797 -2.1875,-0.41796 0,8.87304 0,8.87305 -2.82227,1.07227 -2.82421,1.07421 -2.17579,7.07032 -2.17773,7.07031 0,5.64844 0,5.65039 -1.25,-0.77344 -1.25,-0.77344 0,-18.08984 0,-18.08985 -2.1875,-0.89843 c -1.20313,-0.49405 -6.01373,-0.81974 -10.68945,-0.72266 l -8.5,0.17774 -2.22266,2.00976 c -2.942,2.66248 -5.5348,2.54038 -8.18555,-0.38867 l -2.17382,-2.40234 0.40429,-4.68555 0.4043,-4.6875 -1.55078,-0.51563 -1.54883,-0.51757 0,-6.0586 0,-6.05859 -2.81055,-0.39844 -2.8125,-0.40039 -0.90039,-7.24609 -0.90039,-7.24414 -4.56836,-8.69336 -4.56843,-8.6914 -6.69336,0 -6.69531,0 -3.79297,6.5625 c -2.08641,3.60937 -4.10128,7.96875 -4.47656,9.6875 -0.37528,1.71875 -1.2081,4.09927 -1.85156,5.28906 l -1.16992,2.16211 0.5625,4.40039 0.5625,4.39844 -3.69141,0 -3.69336,0 0,6.04101 c 0,3.32292 -0.366,6.40896 -0.81445,6.85742 -0.44847,0.44847 -0.8704,6.86268 -0.9375,14.25391 l -0.12305,13.43945 -3.75,0.65039 -3.75,0.65039 -0.36523,9.67774 -0.36524,9.67969 -1.19726,0 -1.19727,0 0,3.125 0,3.125 -1.11328,0 -1.11328,0 -0.73633,-13.4375 c -0.40451,-7.39062 -1.08436,-20.60938 -1.51172,-29.375 l -0.77734,-15.9375 -2.91407,0 -2.91601,0 -0.63281,2.1875 c -0.34795,1.20312 -1.02134,14.42187 -1.49805,29.375 l -0.86719,27.1875 -1.08594,0 -1.08398,0 0,-21.875 0,-21.875 -3.125,0 -3.125,0 0,-2.5 0,-2.5 -3.61719,0 -3.61523,0 -0.75977,-1.97657 c -0.41731,-1.08748 -0.75781,-4.85359 -0.75781,-8.36718 0,-3.51359 -0.94882,-11.70409 -2.10938,-18.20118 l -2.11132,-11.8125 -2.26368,-0.59179 -2.26562,-0.5918 -0.23047,-7.66797 -0.23242,-7.66601 z"/>
  </g>
</svg>
