<?xml version="1.0" encoding="UTF-8" standalone="no"?>
<!-- Created with Inkscape (http://www.inkscape.org/) -->

<svg
   xmlns:dc="http://purl.org/dc/elements/1.1/"
   xmlns:cc="http://creativecommons.org/ns#"
   xmlns:rdf="http://www.w3.org/1999/02/22-rdf-syntax-ns#"
   xmlns:svg="http://www.w3.org/2000/svg"
   xmlns="http://www.w3.org/2000/svg"
   xmlns:sodipodi="http://sodipodi.sourceforge.net/DTD/sodipodi-0.dtd"
   xmlns:inkscape="http://www.inkscape.org/namespaces/inkscape"
   width="50.889683mm"
   height="67.943787mm"
   viewBox="0 0 180.31777 240.7457"
   id="svg7883"
   version="1.1"
   inkscape:version="0.91 r13725"
   sodipodi:docname="trans-alliance-fist.svg">
  <defs
     id="defs7885">
    <path
       d="m 0,215 a 32,32 0 0 0 32,-32 l 0,-16 31,0 a 32,32 0 0 0 0,-64 l -31,0 0,-71 199,0 0,31 a 32,32 0 0 0 64,0 l 0,-31 28,0 A 32,32 0 0 0 355,0 L 0,0 Z"
       transform="scale(0.24,0.24)"
       id="cross"
       inkscape:connector-curvature="0" />
  </defs>
  <sodipodi:namedview
     id="base"
     pagecolor="#000000"
     bordercolor="#666666"
     borderopacity="1.0"
     inkscape:pageopacity="0"
     inkscape:pageshadow="2"
     inkscape:zoom="1"
     inkscape:cx="-111.74022"
     inkscape:cy="67.82688"
     inkscape:document-units="px"
     inkscape:current-layer="g8612"
     showgrid="false"
     fit-margin-top="5"
     fit-margin-left="5"
     fit-margin-right="5"
     fit-margin-bottom="5"
     inkscape:window-width="1366"
     inkscape:window-height="717"
     inkscape:window-x="0"
     inkscape:window-y="25"
     inkscape:window-maximized="1"
     inkscape:snap-page="true"
     inkscape:snap-bbox="true"
     inkscape:bbox-paths="true"
     inkscape:bbox-nodes="true"
     inkscape:snap-bbox-edge-midpoints="true" />
  <metadata
     id="metadata7888">
    <rdf:RDF>
      <cc:Work
         rdf:about="">
        <dc:format>image/svg+xml</dc:format>
        <dc:type
           rdf:resource="http://purl.org/dc/dcmitype/StillImage" />
        <dc:title></dc:title>
      </cc:Work>
    </rdf:RDF>
  </metadata>
  <g
     inkscape:label="Layer 1"
     inkscape:groupmode="layer"
     id="layer1"
     transform="translate(-282.38795,-753.8175)">
    <g
       id="g8612"
       transform="matrix(0.82064262,0,0,0.82064262,151.21323,764.33961)">
      <path
         inkscape:connector-curvature="0"
         style="fill:#ffffff;fill-opacity:1"
         d="m 268.18204,72.469759 0,16.686138 c 0.78665,-0.186073 1.97625,-0.464757 2.53232,-0.597373 6.51119,-1.552832 8.6799,-4.12957 10.30062,-12.230794 l 0.77111,-3.857971 -13.60405,0 z m 15.85077,0 c -0.20775,1.111523 -0.55502,2.414645 -0.99484,3.998391 -2.26874,8.169574 0.68837,8.002286 8.75124,-0.497418 0.97845,-1.031458 2.01211,-2.230477 3.06067,-3.500973 l -10.81707,0 z m 14.13716,0 c -2.69944,4.230377 -5.64637,8.827514 -8.62033,13.40889 -6.93378,10.681422 -12.63474,20.398031 -12.66871,21.593691 -0.0461,1.62105 2.69818,3.57518 10.79089,7.67786 5.96903,3.02604 11.45552,5.51644 12.19271,5.53587 0.73721,0.0194 2.90279,-1.27776 4.81235,-2.88455 4.76196,-4.00691 23.86051,-28.754379 28.39096,-36.787581 2.35952,-4.183803 3.49653,-6.623693 3.48431,-8.54418 l -38.38218,0 z m 43.33971,7.173303 c -2.09447,0.05325 -36.70258,41.084238 -36.7019,43.513448 2.3e-4,0.8595 2.77495,4.56674 6.16418,8.23715 l 3.22014,3.4867 8.2562,0 c 2.11818,-1.47437 4.94094,-3.54096 7.72308,-5.69057 7.63817,-5.90156 8.90832,-6.72167 8.90832,-5.75483 0,0.23504 -4.61427,4.37136 -10.25301,9.19392 l -2.63228,2.25148 16.74327,0 c 0.21299,-0.61406 0.449,-1.23015 0.72352,-1.83498 1.22249,-2.69353 2.23292,-7.10121 2.24671,-9.79368 l 0.0262,-4.89565 -2.28479,1.22332 c -3.75756,2.01099 -2.65934,0.18641 4.70763,-7.82066 9.8757,-10.7338 10.61711,-12.002023 8.90594,-15.236732 -2.54008,-4.801627 -13.85738,-16.927085 -15.75321,-16.878916 z m -66.74695,12.844834 c -0.89562,-0.0024 -2.01825,0.09005 -3.37007,0.2737 -1.02552,0.139306 -2.10434,0.319408 -3.21062,0.530731 l 0,12.140353 c 1.29356,-2.04495 3.81423,-5.11206 5.70009,-6.916265 4.38628,-4.196296 4.76164,-6.017771 0.8806,-6.028519 z m -6.58069,23.188294 0,11.70242 c 0.23776,0.25855 0.44987,0.50633 0.69734,0.76874 2.28501,2.42301 4.22722,4.61361 5.98093,6.73301 l 36.8685,0 c -7.81202,-7.42022 -13.3461,-11.67144 -17.2026,-13.21136 -3.86126,-1.5418 -17.69928,-4.54676 -26.34417,-5.99281 z"
         id="rect6301-7-2" />
      <path
         inkscape:connector-curvature="0"
         style="fill:#f4a8b7;fill-opacity:1"
         d="m 199.81194,72.469759 c -0.69675,1.005393 -1.40329,2.02999 -2.06108,2.955953 -3.95062,5.561191 -7.18558,10.959004 -7.18758,11.995179 -0.002,1.036152 -2.05556,4.969423 -4.56483,8.739334 -2.50927,3.769912 -4.56283,7.230725 -4.56483,7.689765 -0.005,1.1997 7.75507,13.16459 9.06302,13.97294 1.7301,1.06926 8.23054,9.88896 12.78533,17.05743 l 64.89531,0 c -3.28724,-4.60174 -6.67601,-9.31227 -9.0654,-12.69013 -4.71238,-6.6619 -9.33909,-12.48492 -10.28158,-12.94003 -3.19436,-1.54254 -18.83002,-7.75204 -22.27674,-8.84645 l -3.4272,-1.087656 2.856,-1.347079 c 4.02726,-1.900157 7.99678,-8.460589 7.99678,-13.216104 0,-5.588157 1.84703,-5.16709 10.26254,2.341919 3.91847,3.496382 7.71146,6.139115 8.42756,5.873823 0.71611,-0.265304 4.1293,-1.14024 7.58504,-1.94684 2.61998,-0.611521 5.46749,-1.285748 7.93014,-1.868292 l 0,-16.683762 -68.37248,0 z m 68.37248,20.820191 c -7.69418,1.469471 -16.70531,4.480282 -18.15222,6.223684 -1.0879,1.310846 -0.83163,1.956056 1.29234,3.258216 12.60561,7.72826 13.60709,7.89565 16.75278,2.81315 0.0291,-0.0469 0.0767,-0.10894 0.1071,-0.15707 l 0,-12.13798 z m -6.70206,21.55323 c -0.25028,0.011 -0.41036,0.0444 -0.46886,0.10236 -1.35452,1.34151 1.55278,6.3268 7.17092,12.43546 l 0,-11.70242 c -3.13504,-0.52447 -5.70296,-0.87828 -6.70206,-0.83539 z"
         id="rect6301-7-3-2" />
      <path
         inkscape:connector-curvature="0"
         style="fill:#f4a8b7;fill-opacity:1"
         d="m 268.18442,16.37567 0,26.874899 c 3.19688,-5.214355 6.62931,-11.109243 7.87779,-13.556449 l 2.43473,-4.77189 -5.22647,-4.600529 c -1.41569,-1.246143 -3.19045,-2.606444 -5.08605,-3.946031 z m 15.82697,11.811913 c -1.51591,0 -3.56916,0.6426 -4.56007,1.427997 -1.70597,1.352161 -7.37737,10.664057 -11.2669,17.87376 l 0,11.278794 c 1.77812,1.050583 3.974,2.250217 6.38077,3.443852 8.59111,4.260754 10.37905,5.381329 9.46762,10.257777 l 10.81707,0 c 6.26866,-7.595451 13.25674,-18.632612 14.66791,-23.540527 l 1.428,-4.962288 -4.4982,-3.846072 c -5.81551,-4.974577 -18.89767,-11.933293 -22.4362,-11.933293 z m 27.46989,24.602004 c -0.84327,0.341733 -3.2859,3.557007 -5.42877,7.144744 -1.22376,2.048917 -4.28826,6.902746 -7.88254,12.535432 l 38.38218,0 c -0.011,-1.758635 -0.98378,-3.082159 -2.89883,-4.895649 -5.88517,-5.573034 -20.63391,-15.407855 -22.17204,-14.784527 z m -43.29686,8.230021 0,11.450155 13.60167,0 0.68306,-3.408152 -2.53707,-2.053936 c -1.22375,-0.990933 -6.2644,-3.534769 -11.74766,-5.988067 z"
         id="rect6301-7-0-9-6" />
      <path
         inkscape:connector-curvature="0"
         style="fill:#ffffff;fill-opacity:1"
         d="m 268.18204,18.796115 0,24.456823 c 3.19736,-5.21503 6.63147,-11.11119 7.88017,-13.558829 l 0.10947,-0.214199 0,-2.694154 a 7.9885524,7.9885524 0 0 0 -7.98964,-7.989641 z m 10.22922,11.983272 c -2.35309,2.989757 -6.92376,10.587225 -10.22922,16.714702 l 0,11.271654 c 1.77852,1.050928 3.9752,2.252014 6.38315,3.446233 0.6071,0.301088 1.06588,0.539438 1.6065,0.811578 l 0,-16.267264 7.73736,0 a 7.9885526,7.9885526 0 0 0 0,-15.976903 l -5.49779,0 z m -10.22922,30.237831 0,11.452535 13.60405,0 0.68306,-3.408153 -2.53707,-2.053935 c -1.22397,-0.991108 -6.26566,-3.536754 -11.75004,-5.990447 z m 57.66728,0.287979 0,3.177293 -22.60996,0 c -1.37901,2.198403 -3.17016,5.010937 -5.06939,7.987263 l 38.38218,0 c -0.011,-1.758636 -0.98378,-3.082159 -2.89883,-4.895649 -1.91124,-1.809881 -4.77926,-4.064385 -7.804,-6.268907 z m -46.89304,3.177293 c 4.72859,2.585296 5.79986,4.117224 5.07653,7.987263 l 10.81707,0 c 1.99869,-2.421721 4.04638,-5.172508 5.98807,-7.987263 l -21.88167,0 z"
         id="path12683-6" />
      <path
         inkscape:connector-curvature="0"
         style="fill:#ff9955"
         d="m 251.82197,10.059157 c -3.49258,2.789484 -9.12091,9.666682 -12.66158,15.843624 -2.341,4.08408 -5.5205,9.099776 -7.0662,11.145515 -1.5457,2.045726 -2.46773,4.276429 -2.04679,4.957529 0.42093,0.681101 5.46267,3.506907 11.20263,6.280806 12.22329,5.907029 8.90393,5.964545 -4.41489,0.07616 -14.37359,-6.354764 -14.73074,-6.368722 -19.80393,-0.818718 -2.39292,2.617826 -6.09252,7.686013 -8.22289,11.264513 -1.77564,2.982665 -5.50855,8.628326 -8.99638,13.66117 l 68.37011,0 0,-11.452535 c -0.76564,-0.342541 -1.51224,-0.68919 -2.28718,-1.023398 -9.85827,-4.251607 -11.00467,-5.011719 -8.02534,-5.316907 3.00468,-0.307795 4.30942,-1.700326 9.61756,-10.281577 0.22793,-0.368468 0.46357,-0.76499 0.69496,-1.142397 l 0,-26.879658 c -3.54069,-2.501956 -7.48428,-4.899684 -10.36964,-6.314127 l -5.99044,0 z m 16.36008,37.434935 c -2.35155,4.359173 -4.05143,7.950837 -3.82465,8.541801 0.15891,0.414121 1.67082,1.457147 3.82465,2.729854 l 0,-11.271655 z"
         id="rect6301-7-0-1" />
      <path
         inkscape:connector-curvature="0"
         style="fill:#ffffff;fill-opacity:1"
         d="m 254.22576,8.7668283 c -2.43855,0 -10.49746,9.1669257 -15.06537,17.1359617 -2.341,4.084079 -5.5205,9.099776 -7.0662,11.145514 -1.5457,2.045726 -2.46773,4.276429 -2.04679,4.95753 0.42093,0.6811 5.46267,3.506906 11.20263,6.280806 12.22329,5.907029 8.90393,5.964545 -4.41489,0.07616 -14.37359,-6.354764 -14.73074,-6.368723 -19.80393,-0.818719 -2.39292,2.617827 -6.09252,7.686014 -8.22289,11.264515 -1.77564,2.982665 -5.50855,8.628325 -8.99638,13.661169 l 68.37011,0 0,-11.452534 c -0.76564,-0.342542 -1.51224,-0.689191 -2.28718,-1.023398 -9.85827,-4.251608 -11.00467,-5.011721 -8.02534,-5.316909 3.00468,-0.307795 4.30942,-1.700326 9.61756,-10.281576 0.22793,-0.368469 0.46357,-0.764991 0.69496,-1.142398 l 0,-26.879657 C 262.65686,12.469034 256.08516,8.7668285 254.22576,8.7668285 Z m 13.95629,38.7272727 c -2.35155,4.359173 -4.05143,7.950836 -3.82465,8.541801 0.15891,0.41412 1.67082,1.457147 3.82465,2.729853 l 0,-11.271654 z"
         id="rect6301-7-0-8" />
      <path
         inkscape:connector-curvature="0"
         style="fill:#f4a8b7;fill-opacity:1"
         d="m 268.18205,18.796115 a 7.9885524,7.9885524 0 0 0 -7.98726,7.989642 l 0,3.993631 -7.73975,0 a 7.9885526,7.9885526 0 0 0 0,15.976903 l 7.73975,0 0,7.199484 c 1.773,-1.030833 3.52475,-3.469747 7.2923,-9.560438 0.22793,-0.368469 0.46357,-0.764991 0.69496,-1.142398 l 0,-24.456824 z m 0,28.697975 c -2.35155,4.359173 -4.05143,7.950836 -3.82465,8.541801 0.15891,0.414121 1.67082,1.457147 3.82465,2.729853 l 0,-11.271654 z m -57.69583,8.67984 c -0.61196,0.92013 -1.19418,1.822127 -1.6779,2.634654 -1.77564,2.982665 -5.50855,8.628326 -8.99638,13.66117 l 68.37011,0 0,-11.452535 c -0.76564,-0.342541 -1.51224,-0.689191 -2.28718,-1.023398 -2.40936,-1.039094 -4.26448,-1.856518 -5.70008,-2.522794 l 0,7.011464 -49.68001,0 0,-7.739742 a 7.9885651,7.9885651 0 0 0 -0.0286,-0.568819 z"
         id="path12683-0-6-2-7" />
      <path
         inkscape:connector-curvature="0"
         style="fill:#ffffff;fill-opacity:1"
         d="m 199.81194,72.469759 c -0.69675,1.005393 -1.40328,2.02999 -2.06107,2.955953 -1.24924,1.75852 -2.36749,3.440583 -3.39388,5.033689 l 0.18326,0 0,7.737358 a 7.98856,7.98856 0 0 0 15.97691,0 l 0,-7.737358 49.67763,0 0,10.576694 c 0.0213,-0.0049 0.0382,-0.0097 0.0595,-0.01426 2.61998,-0.611521 5.46748,-1.285749 7.93014,-1.868292 l 0,-16.683762 -68.37248,0 z m 68.37249,20.820191 c -2.63654,0.503533 -5.40131,1.199231 -7.98964,1.951593 l 0,2.941682 -7.73737,0 a 7.9885526,7.9885526 0 0 0 -0.44506,0.01901 c -0.96296,0.478808 -1.66034,0.926018 -1.98015,1.311375 -1.08791,1.31085 -0.83163,1.95605 1.29234,3.25821 12.6056,7.72827 13.60708,7.89566 16.75278,2.81315 0.029,-0.0469 0.0767,-0.10894 0.1071,-0.15707 l 0,-12.137974 z m -23.60955,14.11813 a 7.9885526,7.9885526 0 0 0 7.88254,6.75204 l 0.6902,0 c -2.13537,-2.72571 -3.8011,-4.66065 -4.31731,-4.90992 -0.7824,-0.37781 -2.34219,-1.04818 -4.25543,-1.84212 z m 16.90748,7.4351 c -0.25028,0.011 -0.41036,0.0444 -0.46886,0.10236 -1.25437,1.24233 1.13268,5.60419 5.95237,11.09315 a 7.9885524,7.9885524 0 0 0 1.21856,0.10467 l 0,-10.46483 c -3.13505,-0.52447 -5.70297,-0.87828 -6.70207,-0.83539 z"
         id="path12683-0-9" />
      <path
         inkscape:connector-curvature="0"
         style="fill:#f4a8b7;fill-opacity:1"
         d="m 268.18442,72.469759 0,16.683762 c 0.78559,-0.18583 1.97448,-0.462527 2.52994,-0.594997 2.31421,-0.551909 4.07201,-1.23887 5.45971,-2.251479 l 0,-5.847644 3.80085,0 c 0.38537,-1.191965 0.72439,-2.553789 1.04006,-4.131671 l 0.77111,-3.857971 -13.60167,0 z m 15.84839,0 c -0.20775,1.111523 -0.55502,2.414645 -0.99484,3.998391 -0.47119,1.696734 -0.70449,3.013781 -0.7259,3.991251 l 4.77665,0 c 1.30538,-1.071478 2.86391,-2.55259 4.70049,-4.488669 0.97845,-1.031458 2.01211,-2.230477 3.06067,-3.500973 l -10.81707,0 z m 14.13716,0 c -1.60842,2.520602 -3.36474,5.241623 -5.13602,7.989642 l 32.81774,0 0,7.737358 a 7.988565,7.988565 0 0 0 0.51646,2.794115 c 2.94182,-4.077743 5.4236,-7.714213 6.69969,-9.976935 2.35952,-4.183803 3.49653,-6.623693 3.48431,-8.54418 l -38.38218,0 z m 43.33971,7.173303 c -0.81881,0.02081 -6.62882,6.342978 -13.37557,14.134787 a 7.988565,7.988565 0 0 0 13.69449,-5.58109 l 0,-7.737358 1.20427,0 c -0.68342,-0.509351 -1.22796,-0.823839 -1.52319,-0.816339 z m -66.74695,12.844834 c -0.89562,-0.0024 -2.01825,0.09005 -3.37007,0.2737 -1.02468,0.139184 -2.10291,0.317252 -3.20824,0.528354 l 0,12.13798 c 1.29434,-2.04497 3.81308,-5.10849 5.69771,-6.911515 0.95948,-0.917927 1.71897,-1.716642 2.29194,-2.413303 l 0,-3.491459 c -0.38435,-0.07933 -0.84919,-0.122197 -1.41134,-0.123757 z m 7.10428,5.695329 c -2.94213,4.913835 -4.96648,8.599095 -4.98608,9.289115 -0.0415,1.46012 2.21967,3.20619 8.57512,6.53308 a 7.9885526,7.9885526 0 0 0 -1.54462,-15.822195 l -2.04442,0 z m -13.68259,17.495335 0,10.46484 a 7.9885524,7.9885524 0 0 0 7.98965,-7.98964 l 0,-1.00199 c -2.89769,-0.58288 -5.58388,-1.07075 -7.98965,-1.47321 z"
         id="path12683-0-6-0" />
      <path
         inkscape:connector-curvature="0"
         style="fill:#5acdf9;fill-opacity:1"
         d="m 203.28197,134.88035 c 0.93659,1.47403 1.77935,2.86092 2.48948,4.11025 l 0,-4.11025 -2.48948,0 z m 2.48948,0 31.20649,20.80354 0,-20.80354 -31.20649,0 z m 31.20649,20.80354 0,41.60706 31.20411,20.80353 0,-41.60707 -31.20411,-20.80352 z m 31.20411,20.80352 5.6858,3.79134 4.22687,-2.46806 c 3.06815,-1.79043 7.1132,-4.51649 8.98924,-6.05947 l 3.41054,-2.80601 -2.09678,-4.40537 c -1.15405,-2.42286 -6.28708,-10.21764 -11.40731,-17.3216 -2.52262,-3.49995 -5.61421,-7.85934 -8.80836,-12.33075 l 0,41.59992 z m 0,41.60707 0,40.83833 c 1.93676,0.004 3.24448,0.019 5.35499,0.019 l 25.85149,0 0,-20.05383 -6.56164,-4.37444 c -0.0413,0.9859 -0.18518,1.63699 -0.43316,1.88497 -0.38931,0.38932 -0.78191,-0.7641 -1.13764,-2.93216 l -23.07404,-15.38188 z m 31.20648,20.80354 18.54017,12.35931 c 0.34053,-4.86001 0.83444,-17.68819 1.16857,-30.9328 0.0848,-3.36418 0.19648,-6.60348 0.31892,-9.68181 l -20.02766,-13.35177 0,41.60707 z m 0,-41.60707 0,-14.83213 -1.01388,0.82586 c -1.33921,1.09098 -3.39553,2.5523 -4.56958,3.24869 -1.16841,0.69305 -1.72492,1.7275 -2.06346,5.65963 l 7.64692,5.09795 z m -62.41059,0 -1.80642,-1.20427 c -1.39972,10.75385 -4.37012,30.0969 -6.2927,40.58842 -2.05618,11.22056 -2.20014,19.0889 -0.38318,20.90587 0.44672,0.44671 3.10195,0.75889 8.4823,0.9758 l 0,-61.26582 z m 37.88237,-62.4106 c 6.07221,7.33841 9.48597,13.652 13.57787,24.31878 6.29095,16.39933 6.85476,17.54098 9.9341,20.08716 l 1.01625,0.84014 0,-45.24608 -24.52822,0 z m 55.73234,0 0,42.41388 c 2.01651,-2.77131 3.76558,-5.30466 4.39109,-6.40694 2.60987,-4.59915 7.77278,-26.35745 7.07811,-29.83085 -0.29632,-1.48159 0.0553,-3.81053 0.87584,-6.17609 l -12.34504,0 z m -54.95646,46.5765 10.64572,7.09714 -1.14716,-5.91191 -6.30937,-0.78778 -3.18919,-0.39745 z"
         id="rect7036-2-3" />
      <path
         inkscape:connector-curvature="0"
         style="fill:#ffffff;fill-opacity:1"
         d="m 205.77145,134.88051 0,4.11025 c 0.13921,0.2449 0.31728,0.53149 0.44506,0.76398 2.46519,4.48486 5.29713,7.97243 7.32325,9.02017 1.81679,0.9395 3.30343,2.3677 3.30343,3.17254 0,0.80486 4.41293,8.37271 9.80558,16.81942 l 9.8032,15.35811 -0.59976,6.28318 c -0.12698,1.32789 -0.38082,3.37485 -0.68068,5.67867 l 1.80642,1.20428 0,-41.60706 -31.2065,-20.80354 z m 31.2065,20.80354 31.2041,20.80352 0,-41.59992 c -0.002,-0.002 -0.003,-0.005 -0.005,-0.007 l -31.19935,0 0,20.80354 z m 31.2041,20.80352 0,41.60707 23.07405,15.3819 c -0.25172,-1.5342 -0.48813,-3.50533 -0.68068,-6.10944 -1.21096,-16.37751 -2.85002,-31.36024 -4.18879,-38.27031 l -0.10472,-0.54264 -10.64572,-7.09714 -3.12017,-0.39033 1.35184,-0.78777 -5.68581,-3.79134 z m 0,41.60707 -31.2041,-20.80353 0,61.26582 c 6.08784,0.24543 16.42743,0.35262 31.2041,0.37604 l 0,-40.83833 z m 31.20649,-83.21413 0,45.24608 1.42086,1.17333 -1.42086,1.15906 0,14.83213 20.02766,13.35177 c 0.41065,-10.32468 0.9863,-18.39049 1.4518,-19.44932 0.60429,-1.37451 3.65026,-5.84051 6.76871,-9.92458 1.00325,-1.31392 1.99949,-2.66012 2.95595,-3.97459 l 0,-42.41388 -4.39824,0 -7.61836,6.51643 -6.64733,-6.32841 c -0.0693,-0.0661 -0.13094,-0.12251 -0.19991,-0.18802 l -12.34028,0 z m 0,62.4106 -7.64692,-5.09796 c -0.20702,2.40458 -0.33445,5.88614 -0.46648,11.05746 -0.21694,8.49737 0.18727,19.19298 0.89726,23.76901 0.50301,3.24193 0.72387,5.84673 0.6545,7.50412 l 6.56164,4.37443 0,-41.60706 z m 0,41.60706 0,20.05384 17.8214,0 0.6069,-5.9976 c 0.0321,-0.31596 0.0758,-1.18211 0.11186,-1.69692 l -18.54016,-12.35932 z m 14.80357,-104.01766 2.94167,3.18682 2.51804,-1.34708 c 0.50949,-0.27268 1.56404,-0.98188 2.79649,-1.83974 l -8.2562,0 z"
         id="rect7036-1-7" />
    </g>
    <path
       style="fill:none;stroke:none;stroke-opacity:1"
       d="m 412.02811,971.92466 c 0.27446,-2.70703 0.74715,-14.75678 1.0504,-26.77724 0.30325,-12.02044 0.95711,-22.77826 1.45302,-23.90625 0.49591,-1.12798 2.99548,-4.79307 5.5546,-8.14463 2.55913,-3.35156 5.27215,-7.18492 6.02895,-8.51856 2.14177,-3.77426 6.37832,-21.63131 5.80824,-24.48173 -0.30629,-1.53146 0.21984,-4.16605 1.31295,-6.5745 1.00323,-2.21043 1.83332,-5.82677 1.84464,-8.03632 l 0.0206,-4.01736 -1.875,1.00347 c -3.08361,1.6503 -2.18181,0.15218 3.86384,-6.41876 8.10442,-8.80861 8.71206,-9.84821 7.3078,-12.50275 -2.08448,-3.94043 -11.37095,-13.89174 -12.92675,-13.85221 -1.71881,0.0437 -30.12009,33.71652 -30.11953,35.71003 1.9e-4,0.70534 2.276,3.74688 5.05735,6.75898 l 5.057,5.47653 2.06673,-1.10608 c 1.1367,-0.60834 5.02169,-3.38919 8.63328,-6.17966 6.26821,-4.84307 7.31028,-5.51631 7.31028,-4.72288 0,0.19288 -3.78606,3.58873 -8.41345,7.54633 l -8.41346,7.19562 -5.45512,-5.19388 c -6.50094,-6.1896 -11.08772,-9.72158 -14.28047,-10.99645 -4.60518,-1.83886 -26.73356,-6.27887 -27.50165,-5.51815 -1.15847,1.14735 1.45337,5.53192 6.45403,10.83458 8.36794,8.87329 11.72427,14.20161 16.05208,25.48337 5.16262,13.45799 5.6251,14.39305 8.15214,16.48256 l 1.99965,1.65343 -1.99822,1.62782 c -1.09902,0.8953 -2.78652,2.0954 -3.75,2.66689 -1.5452,0.91654 -1.78995,2.53418 -2.07548,13.7178 -0.17803,6.9733 0.15302,15.75123 0.73567,19.50651 0.65834,4.24304 0.72702,7.16013 0.18143,7.70572 -0.54558,0.54559 -1.11022,-2.26356 -1.49153,-7.42058 -0.99377,-13.44008 -2.34002,-25.73583 -3.43867,-31.40653 l -1.02597,-5.2955 -5.17778,-0.64692 -5.17778,-0.64692 4.57792,-2.6715 c 2.51785,-1.46931 5.83755,-3.70749 7.37711,-4.97372 l 2.7992,-2.30223 -1.72192,-3.6151 c -0.94706,-1.9883 -5.15983,-8.38494 -9.36171,-14.21475 -4.20187,-5.8298 -10.80384,-15.07268 -14.67103,-20.53972 -3.86718,-5.46704 -7.66406,-10.24566 -8.4375,-10.61914 -2.62143,-1.26587 -15.45272,-6.36074 -18.28125,-7.25886 l -2.8125,-0.89305 2.34375,-1.10585 c 3.30494,-1.55936 6.5625,-6.943 6.5625,-10.84558 0,-4.58588 1.51649,-4.23973 8.42261,1.92248 3.21567,2.86928 6.32749,5.03875 6.91515,4.82104 0.58767,-0.21772 3.38881,-0.93743 6.22474,-1.59936 2.83594,-0.66193 6.69835,-1.57128 8.58313,-2.02077 5.34336,-1.27432 7.12431,-3.38863 8.45434,-10.03684 l 1.1929,-5.96281 -2.08121,-1.68526 c -1.14466,-0.92689 -6.32866,-3.51707 -11.51999,-5.75594 -8.09012,-3.48905 -9.03119,-4.11244 -6.58622,-4.36289 2.46577,-0.25259 3.53583,-1.39683 7.89192,-8.43897 2.77166,-4.48071 5.93847,-9.90911 7.03736,-12.06311 l 1.99797,-3.91635 -4.28835,-3.77475 c -4.54841,-4.00367 -13.57901,-9.48337 -15.6287,-9.48337 -2.00118,0 -8.61527,7.52277 -12.36389,14.0625 -1.92113,3.35157 -4.53081,7.46733 -5.79928,9.14615 -1.26847,1.67881 -2.02368,3.5097 -1.67824,4.06864 0.34544,0.55894 4.48209,2.87874 9.19255,5.15512 10.03095,4.84756 7.30695,4.89386 -3.62304,0.0616 -11.79558,-5.21499 -12.08846,-5.22711 -16.25174,-0.67254 -1.96373,2.1483 -5.00083,6.30873 -6.7491,9.2454 -1.74826,2.93667 -5.83124,9.07338 -9.07328,13.63713 -3.24205,4.56375 -5.89597,8.99343 -5.89761,9.84375 -0.002,0.85031 -1.6878,4.07727 -3.74702,7.17102 -2.05921,3.09375 -3.74537,5.93321 -3.74701,6.30992 -0.004,0.98452 6.36563,10.80335 7.43899,11.46672 1.76897,1.09328 9.65919,12.10152 12.90073,17.99878 2.02304,3.68047 4.34628,6.54235 6.009,7.40217 1.49094,0.77099 2.71079,1.94221 2.71079,2.6027 0,0.6605 3.62081,6.87232 8.04625,13.80405 l 8.04625,12.60316 -0.49305,5.15625 c -0.5906,6.17637 -3.80639,27.51447 -5.72215,37.96875 -1.68739,9.20807 -1.80587,15.66517 -0.3148,17.15625 0.83577,0.83576 10.33918,1.125 36.96379,1.125 l 35.83879,0 0.49903,-4.92188 z M 401.24436,861.01158 c 3.90786,-3.28824 19.58121,-23.59613 23.29909,-30.18852 3.70946,-6.57746 3.76771,-7.91611 0.47992,-11.02953 -4.82961,-4.57347 -16.93264,-12.64354 -18.19489,-12.13201 -0.69203,0.28044 -2.69702,2.91884 -4.45555,5.86309 -1.75852,2.94425 -7.8529,12.52506 -13.54305,21.29068 -5.69015,8.76563 -10.36855,16.74031 -10.39643,17.72152 -0.0378,1.33031 2.21433,2.93229 8.85555,6.29912 4.89844,2.4833 9.40122,4.52816 10.00619,4.5441 0.60498,0.0159 2.3821,-1.04985 3.94917,-2.36845 z m -30.03499,-10.02441 c 1.03719,-1.67579 3.18097,-4.28596 4.76396,-5.8004 4.43023,-4.23836 3.87288,-5.52629 -2.0437,-4.72259 -6.69438,0.90936 -16.17057,3.90511 -17.52854,5.54136 -0.89278,1.07574 -0.68347,1.60363 1.05955,2.67224 10.3447,6.34214 11.16724,6.4803 13.74873,2.30939 z m 19.45891,-24.30288 c 5.6033,-5.90687 13.19747,-17.48984 14.54925,-22.19119 l 1.17089,-4.07219 -3.69034,-3.1567 c -4.77246,-4.08235 -15.50999,-9.79267 -18.41386,-9.79267 -1.24402,0 -2.92718,0.52735 -3.74036,1.17188 -2.24685,1.78087 -12.88197,20.39465 -12.38804,21.68179 0.2381,0.62047 4.00765,2.90103 8.37679,5.0679 8.65724,4.29355 8.89804,4.69874 6.95362,11.7004 -1.86183,6.7043 0.56531,6.566 7.18205,-0.40922 z"
       id="path6136"
       inkscape:connector-curvature="0"
       sodipodi:nodetypes="cssssssscsssccscsssscsssssscssssssscccsscssssscssssssscssssscsssssssssscscssssscsssscccsssssssscssssssssscsssssss" />
  </g>
</svg>
