<svg
	class="my-logo"
	width="195.01479"
	height="195.01479"
	viewBox="-11.004535 0 184.010255 195.01479"
	xmlns="http://www.w3.org/2000/svg">
	<defs>
		<linearGradient id="grd1" x1="0%" y1="0%" x2="100%" y2="0%">
			<stop class="stop1 logo-color-transparent" offset="25%" stop-color="#62181D" stop-opacity="0"/>
			<stop class="stop2 logo-color-brown" offset="35%" stop-color="#62181D" stop-opacity=".30"/>
			<stop class="stop2 logo-color-brown" offset="40%" stop-color="#62181D" stop-opacity=".55"/>
			<stop class="stop2 logo-color-brown" offset="50%" stop-color="#62181D" stop-opacity=".75"/>
			<stop class="stop2 logo-color-brown" offset="60%" stop-color="#62181D" stop-opacity=".90"/>
			<stop class="stop2 logo-color-brown" offset="100%" stop-color="#62181D" stop-opacity="1"/>
		</linearGradient>
		<linearGradient id="grd2" x1="0%" y1="0%" x2="100%" y2="0%">
			<stop class="stop1 logo-color-red" offset="0%" stop-color="#F01E25" stop-opacity="1">
				<!-- <animate attributeName="stop-opacity" values="1; .5" dur="3s" fill="freeze"></animate> -->
			</stop>
			<stop class="stop2 logo-color-brown" offset="100%" stop-color="#62181D" stop-opacity="1">
				<!-- <animate attributeName="stop-color" values="#79c98c; #0b2d13" dur="3s" fill="freeze"></animate> -->
			</stop>
		</linearGradient>
		<linearGradient id="grd3" x1="0%" y1="0%" x2="0%" y2="100%">
			<stop class="stop1 logo-color-red" offset="0%" stop-color="#F01E25" stop-opacity="1"/>
			<stop class="stop2 logo-color-purple" offset="100%" stop-color="#962577" stop-opacity="1"/>
		</linearGradient>
		<linearGradient id="grd4" x1="0%" y1="0%" x2="0%" y2="100%">
			<stop class="stop1 logo-color-red" offset="0%" stop-color="#34AD39" stop-opacity="1"/>
			<stop class="stop2 logo-color-green" offset="100%" stop-color="#F01E25" stop-opacity="1"/>
		</linearGradient>
		<linearGradient id="grd5" x1="0%" y1="0%" x2="100%" y2="0%">
			<stop class="stop1 logo-color-white" offset="0%" stop-color="#FFFFFF" stop-opacity="1">
				<!-- <animate attributeName="stop-opacity" values="1; .5" dur="3s" fill="freeze"></animate> -->
			</stop>
			<stop class="stop2 logo-color-maroon" offset="100%" stop-color="#85184A" stop-opacity="1">
				<!-- <animate attributeName="stop-color" values="#79c98c; #0b2d13" dur="3s" fill="freeze"></animate> -->
			</stop>
		</linearGradient>
	</defs>
	<path
		 d="m -2.9007611e-6,2.91e-6 173.0057229007611,0 0,195.00569709 -173.0057229007611,0 z"
		 fill="none"
		 class="logo-bg"/>
	<g class="logo-body" stroke="none">
		<path
			class="logo-skin logo-color-tan"
			d="m 39.854567,181.37417 c 11.742288,-2.26963 25.246992,-8.19948 33.422334,-17.15073 4.155982,-6.97482 2.547317,-17.81377 -5.037373,-19.76684 -11.396724,-1.89539 -19.508942,5.54226 -30.914772,6.13308 -1.141576,0.0591 -3.646582,-0.48429 -5.352234,-1.41894 -6.691904,-3.51544 -3.739937,-8.45485 -6.28217,-13.88664 -1.3037,-2.14255 -1.443887,-1.85506 -2.84177,-2.82173 -0.329868,-0.22811 -0.850923,-0.80306 -1.019742,-1.93017 -0.121441,-0.8108 0.140871,-1.80581 0.740875,-2.46307 0.646239,-0.70791 1.243918,-1.55996 2.243224,-2.07374 0.26716,-0.13736 -1.069308,-0.71564 -1.988611,-1.32001 -0.85042,-0.55909 -1.650519,-1.24554 -2.196476,-2.14128 -0.519349,-0.71451 -0.287237,-2.53711 0.159946,-3.44995 0.855605,-1.74656 1.304103,-2.05613 1.438467,-3.04954 0.166563,-1.23146 -0.409987,-1.74331 -3.035913,-1.68801 -1.710749,-0.17303 -2.97764,-0.0659 -4.682207,-1.72816 -1.284883,-1.39238 -1.174693,-3.99388 -0.482544,-5.44158 1.195556,-2.02476 1.642528,-2.75796 2.588739,-4.05408 4.785529,-6.555157 11.036707,-18.465427 2.94565,-24.078727 l -0.512219,-3.3986 c 0.500071,-9.4251 4.765415,-12.92343 12.642581,-12.8301 2.762237,-0.11924 6.964515,-0.29032 9.746211,1.79798 -1.444778,2.86778 -1.363173,6.78289 -1.824942,9.80191 -2.447248,14.08267 -3.931178,26.856777 3.690788,34.501437 4.077976,4.30908 5.473895,6.34257 5.661904,6.22853 3.804631,4.77786 8.455744,8.07438 12.88229,11.76389 10.221471,-21.13483 63.210847,-46.654887 65.211047,-6.58087 -0.61632,2.99651 0.0533,6.91115 0.94413,10.33762 4.33194,14.11096 7.37035,33.9034 21.307,41.89996 13.17857,4.3053 22.28515,11.80194 22.5895,22.44398 l -171.8932529,0.005 C 12.700138,177.91906 27.046249,183.12622 39.854567,181.37417 z"
			fill="#E79778"/>
		<path
			class="logo-skin"
			d="m 39.854567,181.37417 c 11.742288,-2.26963 25.246992,-8.19948 33.422334,-17.15073 4.155982,-6.97482 2.547317,-17.81377 -5.037373,-19.76684 -11.396724,-1.89539 -19.508942,5.54226 -30.914772,6.13308 -1.141576,0.0591 -3.646582,-0.48429 -5.352234,-1.41894 -6.691904,-3.51544 -3.739937,-8.45485 -6.28217,-13.88664 -1.3037,-2.14255 -1.443887,-1.85506 -2.84177,-2.82173 -0.329868,-0.22811 -0.850923,-0.80306 -1.019742,-1.93017 -0.121441,-0.8108 0.140871,-1.80581 0.740875,-2.46307 0.646239,-0.70791 1.243918,-1.55996 2.243224,-2.07374 0.26716,-0.13736 -1.069308,-0.71564 -1.988611,-1.32001 -0.85042,-0.55909 -1.650519,-1.24554 -2.196476,-2.14128 -0.519349,-0.71451 -0.287237,-2.53711 0.159946,-3.44995 0.855605,-1.74656 1.304103,-2.05613 1.438467,-3.04954 0.166563,-1.23146 -0.409987,-1.74331 -3.035913,-1.68801 -1.710749,-0.17303 -2.97764,-0.0659 -4.682207,-1.72816 -1.284883,-1.39238 -1.174693,-3.99388 -0.482544,-5.44158 1.195556,-2.02476 1.642528,-2.75796 2.588739,-4.05408 4.785529,-6.555157 11.036707,-18.465427 2.94565,-24.078727 l -0.512219,-3.3986 c 0.500071,-9.4251 4.765415,-12.92343 12.642581,-12.8301 2.762237,-0.11924 6.964515,-0.29032 9.746211,1.79798 -1.444778,2.86778 -1.363173,6.78289 -1.824942,9.80191 -2.447248,14.08267 -3.931178,26.856777 3.690788,34.501437 4.077976,4.30908 5.473895,6.34257 5.661904,6.22853 3.804631,4.77786 8.455744,8.07438 12.88229,11.76389 10.221471,-21.13483 63.210847,-46.654887 65.211047,-6.58087 -0.61632,2.99651 0.0533,6.91115 0.94413,10.33762 4.33194,14.11096 7.37035,33.9034 21.307,41.89996 13.17857,4.3053 22.28515,11.80194 22.5895,22.44398 l -171.8932529,0.005 C 12.700138,177.91906 27.046249,183.12622 39.854567,181.37417 z"
			fill="url(#grd1)"/>
		<g class="logo-hair">
			<path
				d="m 50.658029,6.7187929 c -0.120188,1.9213296 -0.643963,2.8750396 0.25301,6.1504001 1.400011,5.11223 3.394355,10.45186 3.673925,20.54711 0.220067,13.22543 -4.471136,21.36654 -13.148402,31.19703 -2.781695,-2.0883 -6.983973,-1.91722 -9.74621,-1.79798 -7.877166,-0.0933 -12.14251,3.405 -12.642581,12.83011 l 0.512219,3.39859 c -5.541617,-2.70458 -9.544488,-5.88186 -10.8746188,-12.38534 -4.7101641,-23.02882 11.4433678,-40.35149 28.6671878,-52.8015 0,0 6.472672,-4.3910005 13.30547,-7.1384201 z"
				class="logo-hair-bangs"
				stroke="url(#grd5)"
				stroke-opacity="1"
				stroke-width="1"
				fill="url(#grd5)"/>
			<path
				d="m 152.72817,92.988473 c -4.22721,-14.69493 -31.07318,-12.06307 -43.51323,-10.65482 -5.45597,0.9942 -10.815942,2.27636 -16.036388,3.9771 -5.003356,1.4576 -10.006713,3.27174 -15.010069,6.21968 -5.15408,2.16786 -10.165493,5.049072 -14.986397,8.882807 -3.395169,2.77909 -9.282358,7.40857 -14.217773,13.73197 3.804631,4.77786 8.455744,8.07438 12.88229,11.76389 10.221471,-21.13483 63.210847,-46.654887 65.211047,-6.58087 8.32602,-14.25559 23.56281,-15.55594 25.67052,-27.339757 z"
				class="logo=hair-undercut"
				stroke="url(#grd2)"
				stroke-opacity="1"
				stroke-width="1"
				fill="url(#grd2)"/>
				<g class="logo-hair-body logo-color-red"
				fill="#F01E25">
				<path
					class="logo-hair-body-0"
					stroke="#F01E25"
					stroke-opacity="1"
					stroke-width="1"
					d="m 50.65803,6.7187929 c -0.120188,1.9213296 -0.643963,2.8750396 0.25301,6.1504001 1.400011,5.11223 3.394355,10.45186 3.673925,20.54711 0.220067,13.22543 -4.471136,21.36654 -13.148402,31.19703 -1.444778,2.86779 -1.363173,6.7829 -1.824942,9.80191 -2.447248,14.08267 -3.931178,26.856777 3.690788,34.501437 4.077976,4.30908 5.473895,6.34257 5.661904,6.22853 4.935415,-6.3234 10.822604,-10.95288 14.217773,-13.73197 -2.283441,-1.986425 -5.239187,-5.483247 -5.147983,-7.254137 -3.962775,-28.37236 8.623625,-45.21863 9.865959,-68.89553 0.404847,-6.43182 -0.398504,-14.30708 -3.706996,-18.1649001 -1.087825,-1.38313 -3.397957,-3.62273 -3.78075,-3.54954 -1.690319,0.32318 -5.255779,1.48597 -6.628213,1.98498 -1.134429,0.37179 -2.097731,0.78636 -3.126073,1.18468 z" />
				<g class="logo-hair-body-1">
					<path
						class="logo-hair-body-1a"
						fill="url(#grd3)"
						stroke="url(#grd3)"
						stroke-opacity="1"
						stroke-width="1"
						d="m 63.480039,48.875163 c 2.069183,-7.55669 3.96292,-15.1477 4.407023,-23.61159 0.404847,-6.43182 -0.398504,-14.30708 -3.706996,-18.1649001 -1.087825,-1.38313 -3.405108,-3.65337 -3.78075,-3.54954 -0.377819,0.10443 1.749987,-0.4684 2.961499,-0.67173 14.241714,3.04947 14.29181,28.4233501 12.572315,45.9885101 0,0 -4.986594,-0.0123 -12.453091,0.009 z" />
					<path
						class="logo-hair-body-1b logo-color-purple"
						fill="#962577"
						fill-opacity="1"
						stroke="#962577"
						stroke-opacity="1"
						stroke-width="0.2"
						d="m 78.156427,92.540823 c -5.15408,2.16787 -10.165493,5.049072 -14.986397,8.882817 -2.283441,-1.986425 -5.239187,-5.483247 -5.147983,-7.254137 -2.543344,-18.20963 1.735747,-31.69355 5.458234,-45.28328 7.472723,-0.0443 12.453793,-0.01 12.453793,-0.01 0.09701,9.76769 -7.814062,34.63558 2.222353,43.6645 z" />
				</g>
				<path
					class="logo-hair-body-2"
					stroke="#F01E25"
					stroke-opacity="1"
					stroke-width="1"
					d="m 75.93413,48.865923 c 0.09701,9.76769 -7.814062,34.63559 2.222353,43.66451 5.003356,-2.94794 10.006713,-4.76208 15.010069,-6.21968 -15.949206,-19.33045 11.953038,-71.51316 -3.078204,-85.3821501 -12.59505,-0.60527999 -19.417508,0.6803 -26.726533,1.9488 14.241714,3.04947 14.29181,28.4233601 12.572315,45.9885101" />
				<path
					class="logo-hair-body-3"
					fill="url(#grd4)"
					stroke="url(#grd4)"
					stroke-opacity="1"
					stroke-width="1"
					d="M 109.21494,82.333663 C 97.644168,53.795813 115.62509,12.918053 91.174729,1.0341029 l -1.074381,-0.1055 C 105.13159,14.797593 77.229346,66.980303 93.178552,86.310753 c 5.220446,-1.70074 10.580418,-2.9829 16.036388,-3.97709 z" />
				<path
					class="logo-hair-body-4"
					stroke="#F01E25"
					stroke-opacity="1"
					stroke-width="1"
					d="m 152.72818,92.988473 c 0.60444,-2.04519 0.93011,-4.35171 0.90244,-6.98731 0.0939,-9.64514 0.86739,-11.5036 -1.19952,-20.6313 -5.424,-23.95307 -10.4252,-37.41452 -26.29605,-52.11035 C 115.91155,5.1595829 103.78319,1.9123329 91.172407,1.0433129 115.62509,12.918043 97.644168,53.795813 109.21494,82.333653 c 12.44005,-1.40825 39.28603,-4.04011 43.51324,10.65482 z" />
			</g>
		</g>
	</g>
</svg>
