<?xml version="1.0" encoding="UTF-8" standalone="no"?>
<!-- Created with Inkscape (http://www.inkscape.org/) -->

<svg
   xmlns:dc="http://purl.org/dc/elements/1.1/"
   xmlns:cc="http://creativecommons.org/ns#"
   xmlns:rdf="http://www.w3.org/1999/02/22-rdf-syntax-ns#"
   xmlns:svg="http://www.w3.org/2000/svg"
   xmlns="http://www.w3.org/2000/svg"
   xmlns:sodipodi="http://sodipodi.sourceforge.net/DTD/sodipodi-0.dtd"
   xmlns:inkscape="http://www.inkscape.org/namespaces/inkscape"
   width="360"
   height="360"
   viewBox="0 0 360 359.99999"
   id="svg13792"
   version="1.1"
   inkscape:version="0.91 r13725"
   sodipodi:docname="tlp-logo.svg"
   inkscape:export-filename="/home/poco/Downloads/tlp-logo-v2.png"
   inkscape:export-xdpi="256"
   inkscape:export-ydpi="256">
  <defs
     id="defs13794">
    <inkscape:path-effect
       effect="envelope"
       id="path-effect15298"
       is_visible="true"
       yy="true"
       xx="false"
       bendpath1="m 340.66917,451.86537 60,0"
       bendpath2="m 457.98651,156.89188 0,355"
       bendpath3="m 280.48654,511.89188 180.18263,-0.0265"
       bendpath4="m 280.48654,156.89188 0,355"
       bendpath1-nodetypes="cc"
       bendpath3-nodetypes="cc" />
    <inkscape:path-effect
       effect="envelope"
       id="path-effect15215"
       is_visible="true"
       yy="true"
       xx="false"
       bendpath1="m 345.7233,451.99985 60,0"
       bendpath2="m 465.83309,151.99983 0,359.78064"
       bendpath3="m 285.94271,511.78047 179.89038,0"
       bendpath4="m 285.94271,151.99983 0,359.78064"
       bendpath1-nodetypes="cc" />
    <inkscape:path-effect
       effect="bend_path"
       id="path-effect15213"
       is_visible="true"
       bendpath="m 280.88858,331.75565 179.89035,0"
       prop_scale="1"
       scale_y_rel="false"
       vertical="false" />
    <inkscape:perspective
       sodipodi:type="inkscape:persp3d"
       inkscape:vp_x="0 : 180 : 1"
       inkscape:vp_y="0 : 1000 : 0"
       inkscape:vp_z="360 : 180 : 1"
       inkscape:persp3d-origin="180 : 120 : 1"
       id="perspective14627" />
  </defs>
  <sodipodi:namedview
     id="base"
     pagecolor="#ffffff"
     bordercolor="#666666"
     borderopacity="1.0"
     inkscape:pageopacity="0.0"
     inkscape:pageshadow="2"
     inkscape:zoom="1"
     inkscape:cx="209.47147"
     inkscape:cy="133.77387"
     inkscape:document-units="px"
     inkscape:current-layer="layer1"
     showgrid="false"
     inkscape:snap-object-midpoints="true"
     fit-margin-top="0"
     fit-margin-left="0"
     fit-margin-right="0"
     fit-margin-bottom="0"
     inkscape:snap-page="true"
     showguides="false"
     inkscape:guide-bbox="true"
     inkscape:snap-grids="false"
     inkscape:snap-to-guides="true"
     units="px"
     inkscape:object-paths="true"
     inkscape:snap-bbox="false"
     inkscape:snap-center="true"
     inkscape:snap-others="true"
     inkscape:snap-nodes="true"
     inkscape:object-nodes="true"
     inkscape:window-width="675"
     inkscape:window-height="395"
     inkscape:window-x="392"
     inkscape:window-y="251"
     inkscape:window-maximized="0"
     inkscape:bbox-nodes="true"
     inkscape:snap-smooth-nodes="false"
     inkscape:snap-intersection-paths="true"
     inkscape:snap-text-baseline="false"
     inkscape:bbox-paths="true"
     inkscape:snap-bbox-edge-midpoints="true"
     inkscape:snap-bbox-midpoints="true"
     inkscape:snap-global="true">
    <inkscape:grid
       type="xygrid"
       id="grid14584"
       spacingx="5"
       spacingy="4.9999999"
       originx="0"
       originy="0"
       visible="true" />
    <inkscape:grid
       type="xygrid"
       id="grid14586"
       visible="false"
       enabled="false"
       originx="0"
       originy="0"
       spacingx="0.5"
       spacingy="0.49999999"
       color="#ffb8ff"
       opacity="0.1254902"
       empcolor="#ff3fff"
       empopacity="0.25098039"
       dotted="true" />
    <sodipodi:guide
       position="180,179.99999"
       orientation="1,0"
       id="guide14590" />
    <sodipodi:guide
       position="180,150"
       orientation="0,1"
       id="guide14613" />
    <sodipodi:guide
       position="180,329.99999"
       orientation="1,0"
       id="guide4265" />
    <sodipodi:guide
       position="179.90882,179.84894"
       orientation="0,1"
       id="guide4505" />
    <sodipodi:guide
       position="114.56823,175.86636"
       orientation="0,1"
       id="guide4507" />
    <sodipodi:guide
       position="114.56823,184.38731"
       orientation="0,1"
       id="guide4509" />
    <sodipodi:guide
       position="59.904483,243.16874"
       orientation="0,1"
       id="guide5479" />
    <sodipodi:guide
       position="20.663404,237.9794"
       orientation="0,1"
       id="guide5534" />
  </sodipodi:namedview>
  <metadata
     id="metadata13797">
    <rdf:RDF>
      <cc:Work
         rdf:about="">
        <dc:format>image/svg+xml</dc:format>
        <dc:type
           rdf:resource="http://purl.org/dc/dcmitype/StillImage" />
        <dc:title></dc:title>
      </cc:Work>
    </rdf:RDF>
  </metadata>
  <g
     inkscape:label="Layer 1"
     inkscape:groupmode="layer"
     id="layer1"
     transform="translate(-190.66917,-241.86537)">
    <circle
       style="opacity:1;fill:#ffe5ec;fill-opacity:1;fill-rule:evenodd;stroke:none;stroke-width:1;stroke-linecap:square;stroke-miterlimit:4;stroke-dasharray:none;stroke-dashoffset:0;stroke-opacity:1"
       id="path15244"
       cx="370.66916"
       cy="421.86539"
       r="134.58929" />
    <path
       style="fill:#94359b;fill-rule:evenodd;stroke:none;stroke-width:1px;stroke-linecap:butt;stroke-linejoin:miter;stroke-opacity:1"
       d="m 370.66917,451.86537 -13.78605,25.14419 -9.1907,0 13.78605,-25.14419 9.1907,0 9.1907,0 13.78605,25.14419 -9.1907,0 z"
       id="path14629-6"
       inkscape:connector-curvature="0"
       sodipodi:nodetypes="ccccccccc" />
    <path
       inkscape:connector-curvature="0"
       style="fill:#a780b9;fill-rule:evenodd;stroke:none;stroke-width:1px;stroke-linecap:butt;stroke-linejoin:miter;stroke-opacity:1"
       d="m 342.33909,451.86537 -58.5039,61.95117 a 126.37608,126.37608 0 0 0 22.58593,16.90625 l 46.54102,-78.85742 -10.62305,0 z"
       id="path14774-9" />
    <path
       inkscape:connector-curvature="0"
       style="fill:#a780b9;fill-rule:evenodd;stroke:none;stroke-width:1px;stroke-linecap:butt;stroke-linejoin:miter;stroke-opacity:1"
       d="m 388.3762,451.86537 46.49805,78.7832 a 126.37608,126.37608 0 0 0 22.49023,-16.97851 l -58.36523,-61.80469 -10.62305,0 z"
       id="path14774-9-7" />
    <path
       style="fill:#eac9ed;fill-rule:evenodd;stroke:none;stroke-width:1px;stroke-linecap:butt;stroke-linejoin:miter;stroke-opacity:1"
       d="m 280.66917,511.86537 60,-60 60,0 60,60 z"
       id="path14615"
       inkscape:connector-curvature="0"
       sodipodi:nodetypes="ccccc" />
    <path
       style="fill:#94359b;fill-rule:evenodd;stroke:none;stroke-width:1px;stroke-linecap:butt;stroke-linejoin:miter;stroke-opacity:1"
       d="m 250.66917,548.94026 0,7.92511 45,0 0,-7.92511 z"
       id="path14625-0-9"
       inkscape:connector-curvature="0"
       sodipodi:nodetypes="ccccc" />
    <path
       style="opacity:0;fill:#94359b;fill-rule:evenodd;stroke:none;stroke-width:1px;stroke-linecap:butt;stroke-linejoin:miter;stroke-opacity:1"
       d="m 250.66917,556.86537 30,15 180,0 30,-15 z"
       id="path14625-0"
       inkscape:connector-curvature="0"
       sodipodi:nodetypes="ccccc" />
    <path
       style="fill:#94359b;fill-rule:evenodd;stroke:none;stroke-width:1px;stroke-linecap:butt;stroke-linejoin:miter;stroke-opacity:1"
       d="m 445.66917,548.94026 0,7.92511 45,0 0,-7.92511 z"
       id="path14625-0-9-7"
       inkscape:connector-curvature="0"
       sodipodi:nodetypes="ccccc" />
    <path
       style="opacity:1;fill:#f8a7b8;fill-opacity:1;fill-rule:evenodd;stroke:none;stroke-width:2;stroke-linecap:square;stroke-miterlimit:4;stroke-dasharray:none;stroke-dashoffset:0;stroke-opacity:1"
       d="m 380.63685,358.89094 a 71.288398,71.288398 0 0 1 -12.42129,0.68593 71.288398,71.288398 0 0 1 -7.57008,-0.67763 l 10.03817,42.90051 9.9532,-42.90881 z"
       id="path15260" />
    <path
       style="opacity:1;fill:#ffffff;fill-opacity:1;fill-rule:evenodd;stroke:none;stroke-width:2;stroke-linecap:square;stroke-miterlimit:4;stroke-dasharray:none;stroke-dashoffset:0;stroke-opacity:1"
       d="m 370.57382,295.64055 a 126.37608,126.37608 0 0 0 -57.72566,14.08948 61.642344,61.642344 0 0 0 58.567,40.23557 61.642344,61.642344 0 0 0 56.98173,-40.29358 126.37608,126.37608 0 0 0 -0.49529,-0.2839 126.37608,126.37608 0 0 0 -57.32363,-13.74755 126.37608,126.37608 0 0 0 -0.004,0 z"
       id="path13183-6" />
    <path
       style="fill:#a780b9;fill-rule:evenodd;stroke:none;stroke-width:1px;stroke-linecap:butt;stroke-linejoin:miter;stroke-opacity:1"
       d="m 340.66917,519.79115 -11.72852,21.39063 a 126.37608,126.37608 0 0 0 26.59375,6.21289 l 15.13477,-27.60352 -30,0 z"
       id="path14885" />
    <path
       style="fill:#a780b9;fill-rule:evenodd;stroke:none;stroke-width:1px;stroke-linecap:butt;stroke-linejoin:miter;stroke-opacity:1"
       d="m 370.66917,519.79115 15.12109,27.57813 a 126.37608,126.37608 0 0 0 26.57813,-6.24219 l -11.69922,-21.33594 -30,0 z"
       id="path14883" />
    <path
       inkscape:connector-curvature="0"
       style="fill:#a780b9;fill-rule:evenodd;stroke:none;stroke-width:1px;stroke-linecap:butt;stroke-linejoin:miter;stroke-opacity:1"
       d="m 281.7805,511.86537 a 126.37608,126.37608 0 0 0 8.85547,7.92578 l 159.88672,0 a 126.37608,126.37608 0 0 0 8.77929,-7.92578 l -177.52148,0 z"
       id="path14625-8" />
    <path
       style="fill:#eac9ed;fill-rule:evenodd;stroke:none;stroke-width:1px;stroke-linecap:butt;stroke-linejoin:miter;stroke-opacity:1"
       d="m 280.66917,511.86537 60,-60 60,0 60,60 z"
       id="path14615-3"
       inkscape:connector-curvature="0"
       sodipodi:nodetypes="ccccc" />
    <path
       inkscape:connector-curvature="0"
       style="fill:#eac9ed;fill-rule:evenodd;stroke:none;stroke-width:1px;stroke-linecap:butt;stroke-linejoin:miter;stroke-opacity:1"
       d="m 360.66917,451.86537 -20,60 30,0 0,-60 -10,0 z"
       id="path14615-3-37" />
    <path
       style="fill:none;fill-rule:evenodd;stroke:none;stroke-width:1px;stroke-linecap:butt;stroke-linejoin:miter;stroke-opacity:1"
       d="m 280.66917,511.86537 178.63281,0 z"
       id="path15166"
       inkscape:connector-curvature="0" />
    <rect
       style="opacity:0;fill:#00ffff;fill-opacity:1;fill-rule:evenodd;stroke:none;stroke-width:4;stroke-linecap:square;stroke-miterlimit:4;stroke-dasharray:none;stroke-dashoffset:0;stroke-opacity:1"
       id="rect15185"
       width="50.839287"
       height="35.732143"
       x="335.84775"
       y="434.1868" />
    <path
       style="fill:#ffccd9;fill-rule:evenodd;stroke:none;stroke-width:1px;stroke-linecap:butt;stroke-linejoin:miter;stroke-opacity:1"
       d="m 280.23358,511.8654 60.43559,-60.00003 11.9212,-0.0265 -36.33582,60.02064 z"
       id="path4553"
       inkscape:connector-curvature="0"
       sodipodi:nodetypes="ccccc" />
    <path
       style="fill:#ffffff;fill-rule:evenodd;stroke:none;stroke-width:1px;stroke-linecap:butt;stroke-linejoin:miter;stroke-opacity:1"
       d="m 316.25455,511.85951 36.02553,-0.005 12.17938,-60.01565 -11.86909,-5.9e-4 z"
       id="path4555"
       inkscape:connector-curvature="0" />
    <path
       style="fill:#ffccd9;fill-rule:evenodd;stroke:none;stroke-width:1px;stroke-linecap:butt;stroke-linejoin:miter;stroke-opacity:1"
       d="m 388.30593,511.8495 -11.7368,-60.01093 -11.98938,2.9e-4 -12.29967,60.01564 z"
       id="path4557"
       inkscape:connector-curvature="0" />
    <path
       style="fill:#ffffff;fill-rule:evenodd;stroke:none;stroke-width:1px;stroke-linecap:butt;stroke-linejoin:miter;stroke-opacity:1"
       d="m 424.33189,511.8442 -35.77337,-60.00533 -11.98415,0.0265 11.73156,59.98413 z"
       id="path4561"
       inkscape:connector-curvature="0" />
    <path
       style="fill:#ffccd9;fill-rule:evenodd;stroke:none;stroke-width:1px;stroke-linecap:butt;stroke-linejoin:miter;stroke-opacity:1"
       d="m 460.66917,511.8654 -60.12128,-60.02651 -11.98937,1e-5 35.77337,60.0053 c 11.84634,0.007 24.29558,0.0142 36.33728,0.0212 z"
       id="path4563"
       inkscape:connector-curvature="0"
       sodipodi:nodetypes="ccccc" />
    <path
       style="fill:#ffccd9;fill-rule:evenodd;stroke:none;stroke-width:1px;stroke-linecap:butt;stroke-linejoin:miter;stroke-opacity:1"
       d="m 286.26086,505.86274 168.11124,-0.0238 5.9857,6.00001 -180.12422,0.0265 z"
       id="path4565"
       inkscape:connector-curvature="0" />
    <path
       style="fill:#ffccd9;fill-rule:evenodd;stroke:none;stroke-width:1px;stroke-linecap:butt;stroke-linejoin:miter;stroke-opacity:1"
       d="m 292.29447,499.86009 156.09295,-0.0212 -5.98356,-6 -144.07473,0.0186 z"
       id="path4567"
       inkscape:connector-curvature="0"
       sodipodi:nodetypes="ccccc" />
    <path
       style="fill:#ffccd9;fill-rule:evenodd;stroke:none;stroke-width:1px;stroke-linecap:butt;stroke-linejoin:miter;stroke-opacity:1"
       d="m 304.26877,487.95001 132.15253,-0.11117 -5.9815,-5.99999 -120.03822,0.0132 z"
       id="path4569"
       inkscape:connector-curvature="0"
       sodipodi:nodetypes="ccccc" />
    <path
       style="fill:#ffccd9;fill-rule:evenodd;stroke:none;stroke-width:1px;stroke-linecap:butt;stroke-linejoin:miter;stroke-opacity:1"
       d="m 424.45933,475.83888 -108.0199,0.0106 6.03908,-6.00295 96.0014,-0.008 z"
       id="path4571"
       inkscape:connector-curvature="0"
       sodipodi:nodetypes="ccccc" />
    <path
       style="fill:#ffccd9;fill-rule:evenodd;stroke:none;stroke-width:1px;stroke-linecap:butt;stroke-linejoin:miter;stroke-opacity:1"
       d="m 328.51874,463.84388 83.98279,-0.005 -5.97734,-6.00001 -71.96516,0.003 z"
       id="path4573"
       inkscape:connector-curvature="0"
       sodipodi:nodetypes="ccccc" />
    <path
       id="path4563-62"
       style="fill:#ff99b4;fill-rule:evenodd;stroke:none;stroke-width:1px;stroke-linecap:butt;stroke-linejoin:miter;stroke-opacity:1"
       d="m 454.37229,505.83803 -33.61914,0.006 3.57813,6 36.02734,-0.006 -5.98633,-6 z m -11.96874,-12 -28.80469,0.004 3.57812,6 31.21094,-0.004 -5.98437,-6 z m -11.9629,-12 -23.99609,0.002 3.58789,6.01953 26.38867,-0.0215 -5.98047,-6 z m -11.96093,-12 -19.18946,0.002 3.57618,6 21.59375,-0.002 -5.98047,-6 z m -26.34375,-11.99995 3.57617,6.00195 16.78906,-0.002 -5.97656,-6 -14.38867,0 z m -57.48633,0.004 -6.04688,6.00196 16.72071,-0.002 3.63281,-6 -14.30664,0 z m 7.04101,12.00192 -19.13281,0.002 -6.04687,6.00391 21.54492,-0.002 3.63476,-6.0039 z m -7.26757,12.00586 -23.95703,0.002 -6.14258,6.09765 26.41992,-0.0215 3.67969,-6.07812 z m -7.26758,12.0039 -28.78321,0.004 -6.04492,6.00195 31.19532,-0.004 3.63281,-6.00195 z m -7.26758,12.00391 -33.60938,0.006 -6.04492,6.00195 36.02149,-0.006 3.63281,-6.00195 z m 67.24414,-0.01 -33.62109,0.006 -1.23047,6 18.02344,-0.002 18.00195,-0.002 -1.17383,-6.00196 z m -2.34766,-12.0019 -28.81445,0.004 -1.23047,6.00195 31.21875,-0.006 -1.17383,-6 z m -2.34765,-12.002 -24.00781,0.002 -1.24024,6.05859 26.42969,-0.0215 -1.18164,-6.03906 z m -21.54688,-12.00187 -1.23047,6.00391 21.60547,-0.004 -1.17382,-6 -19.20118,0 z m 2.45899,-12.00199 -1.22852,6.00195 16.79688,-0.002 -1.17383,-6 -14.39453,0 z" />
    <g
       id="g5172"
       transform="matrix(1.20974,0,0,1.20974,-398.72308,-23.104061)"
       style="fill:#fc1381" />
    <path
       style="opacity:1;fill:#a780b9;fill-opacity:1;fill-rule:evenodd;stroke:none;stroke-width:2;stroke-linecap:square;stroke-miterlimit:4;stroke-dasharray:none;stroke-dashoffset:0;stroke-opacity:1"
       d="m 334.39166,349.74801 -7.14111,43.45383 25.64044,-35.86511 a 71.288398,71.288398 0 0 1 -18.49933,-7.58872 z"
       id="path15258" />
    <path
       style="opacity:1;fill:#f8a7b8;fill-opacity:1;fill-rule:evenodd;stroke:none;stroke-width:2;stroke-linecap:square;stroke-miterlimit:4;stroke-dasharray:none;stroke-dashoffset:0;stroke-opacity:1"
       d="m 313.65633,331.20309 -23.2407,37.4359 37.39859,-23.31326 a 71.288398,71.288398 0 0 1 -14.15789,-14.12258 z"
       id="path15254" />
    <path
       style="opacity:1;fill:#a780b9;fill-opacity:1;fill-rule:evenodd;stroke:none;stroke-width:2;stroke-linecap:square;stroke-miterlimit:4;stroke-dasharray:none;stroke-dashoffset:0;stroke-opacity:1"
       d="m 406.8741,349.67131 a 71.288398,71.288398 0 0 1 -18.47858,7.63846 l 25.70465,35.8112 -7.22607,-43.44966 z"
       id="path15256" />
    <path
       style="opacity:1;fill:#f8a7b8;fill-opacity:1;fill-rule:evenodd;stroke:none;stroke-width:2;stroke-linecap:square;stroke-miterlimit:4;stroke-dasharray:none;stroke-dashoffset:0;stroke-opacity:1"
       d="m 427.57627,331.09119 a 71.288398,71.288398 0 0 1 -14.12265,14.15788 l 37.43384,23.24279 -23.31119,-37.40065 z"
       id="path15252" />
    <path
       style="opacity:1;fill:#a780b9;fill-opacity:1;fill-rule:evenodd;stroke:none;stroke-width:2;stroke-linecap:square;stroke-miterlimit:4;stroke-dasharray:none;stroke-dashoffset:0;stroke-opacity:1"
       d="m 304.40771,314.53358 a 126.37608,126.37608 0 0 0 -18.64436,13.99416 l 23.47281,-3.90213 a 71.288398,71.288398 0 0 1 -4.82845,-10.09203 z"
       id="path15250" />
    <path
       style="opacity:1;fill:#a780b9;fill-opacity:1;fill-rule:evenodd;stroke:none;stroke-width:2;stroke-linecap:square;stroke-miterlimit:4;stroke-dasharray:none;stroke-dashoffset:0;stroke-opacity:1"
       d="m 436.78968,314.48598 a 71.288398,71.288398 0 0 1 -4.79115,10.02782 l 23.17233,3.80886 a 126.37608,126.37608 0 0 0 -18.38118,-13.8367 z"
       id="path15248" />
    <path
       inkscape:connector-curvature="0"
       style="opacity:1;fill:#f8a7b8;fill-opacity:1;fill-rule:evenodd;stroke:none;stroke-width:4.12128592;stroke-linecap:square;stroke-miterlimit:4;stroke-dasharray:none;stroke-dashoffset:0;stroke-opacity:1"
       d="M 370.4575,242.10655 A 179.78985,179.90934 0 0 0 190.66917,422.01642 179.78985,179.90934 0 0 0 370.4575,601.9263 179.78985,179.90934 0 0 0 550.24782,422.01642 179.78985,179.90934 0 0 0 370.4575,242.10655 Z m 0,53.53343 A 126.29214,126.37608 0 0 1 427.74302,309.38753 126.29214,126.37608 0 0 1 483.01367,479.338 126.29214,126.37608 0 0 1 313.17811,534.64533 126.29214,126.37608 0 0 1 257.90548,364.69691 126.29214,126.37608 0 0 1 370.4575,295.63998 Z"
       id="path4178" />
    <g
       transform="matrix(1.0610117,0,0,1.0610117,-5.3237949,42.093391)"
       style="font-style:normal;font-variant:normal;font-weight:normal;font-stretch:normal;font-size:15px;line-height:125%;font-family:'Patua One';-inkscape-font-specification:'Patua One';letter-spacing:0px;word-spacing:0px;writing-mode:tb-rl;fill:#ffffff;fill-opacity:1;stroke:none;stroke-width:1px;stroke-linecap:butt;stroke-linejoin:miter;stroke-opacity:1"
       id="text4171">
      <path
         inkscape:connector-curvature="0"
         d="m 225.31406,371.13891 -6.43498,0.0158 -0.36696,-2.83411 q 0.44857,-0.5861 1.88724,-1.12963 l -0.0132,-5.39998 -20.87993,0.0512 q -0.71559,1.80176 -1.47893,2.47863 l -3.73609,-0.44084 -0.0258,-10.52996 3.73389,-0.45916 q 0.76643,0.58312 1.49106,2.47135 l 20.87994,-0.0512 -0.0132,-5.39998 q -1.44132,-0.53647 -1.89276,-1.12036 l 0.35305,-2.83587 6.43498,-0.0158 0.0618,25.19993 z"
         style="font-style:normal;font-variant:normal;font-weight:normal;font-stretch:normal;font-size:45px;font-family:'Patua One';-inkscape-font-specification:'Patua One';letter-spacing:5px;writing-mode:lr-tb;fill:#ffffff;stroke:none"
         id="path13142" />
      <path
         inkscape:connector-curvature="0"
         d="m 221.42416,397.4637 q -2.99679,0.61876 -5.4153,-0.8577 -2.40941,-1.43239 -4.04946,-4.03451 -0.47051,2.3946 -1.64704,3.37271 l -5.46154,4.48195 q -0.27745,2.2169 -1.04824,3.15718 l -3.48442,0.25995 -1.53779,-7.44791 9.75083,-7.29743 q 1.48502,-1.0418 1.29393,-1.96728 l -0.59145,-2.86458 -7.05127,1.45589 q -0.0409,3.36273 -0.89071,4.36529 l -3.74884,0.31454 -2.45682,-11.89902 3.56686,-1.19595 q 0.86748,0.41823 1.95478,2.1236 l 20.14019,-4.1584 q 0.28798,-1.94337 0.99793,-2.73325 l 3.74884,-0.31454 2.32033,11.23796 q 1.18576,6.18806 -0.0905,9.57612 -1.27628,3.38806 -6.3003,4.42538 z m 1.52343,-13.31816 -0.53686,-2.60016 -8.37338,1.72887 0.51867,2.51202 q 0.61875,2.99679 1.80044,4.26912 1.23485,1.30731 3.57059,0.82505 2.33573,-0.48227 2.95183,-2.17175 0.66017,-1.69858 0.0687,-4.56315 z"
         style="font-style:normal;font-variant:normal;font-weight:normal;font-stretch:normal;font-size:45px;font-family:'Patua One';-inkscape-font-specification:'Patua One';letter-spacing:5px;writing-mode:lr-tb;fill:#ffffff;stroke:none"
         id="path13144" />
      <path
         inkscape:connector-curvature="0"
         d="m 237.64393,412.67829 -20.1475,18.66686 q 0.14464,2.0017 -0.37035,3.06471 l -3.59923,1.09468 -4.2471,-9.63551 3.23622,-1.91822 q 0.87664,0.20372 2.10652,1.43201 l 2.96885,-2.63639 -3.63,-8.23548 -3.78912,0.44072 q 0.0588,1.69531 -0.41505,2.74017 l -3.59922,1.09468 -4.13821,-9.38844 3.23623,-1.91823 q 1.27378,0.32375 2.78079,2.06919 l 27.12062,-2.51205 2.48655,5.6413 z m -7.27128,-0.87672 q -2.51182,1.10715 -6.30094,1.54786 l -5.81385,0.64469 2.59545,5.88836 4.33394,-3.77904 q 2.46497,-2.21758 4.75763,-3.37566 l 0.68187,-0.34973 -0.2541,-0.57648 z"
         style="font-style:normal;font-variant:normal;font-weight:normal;font-stretch:normal;font-size:45px;font-family:'Patua One';-inkscape-font-specification:'Patua One';letter-spacing:5px;writing-mode:lr-tb;fill:#ffffff;stroke:none"
         id="path13146" />
      <path
         inkscape:connector-curvature="0"
         d="m 234.95757,437.22208 -9.55133,6.98851 q 0.47474,1.71574 0.11775,2.9806 l -3.06212,1.6829 -5.20817,-7.1181 2.53068,-2.40924 q 1.31358,0.0426 2.80519,1.01426 l 16.77839,-12.2764 q -0.54471,-1.88758 -0.1709,-3.05324 l 3.06212,-1.6829 5.47389,7.48128 -8.80305,17.5371 q -0.94071,1.915 -2.92488,4.53772 l -0.68559,0.89195 0.43756,0.2932 q 2.78755,-2.82023 4.93025,-4.38799 l 9.40606,-6.88223 q -0.44817,-1.67942 -0.0814,-3.00717 l 3.06212,-1.6829 5.20817,7.1181 -2.53067,2.40924 q -1.37648,-0.0523 -2.84152,-0.98768 l -20.88218,15.27907 -4.17185,-5.70175 8.85885,-17.68945 q 0.94072,-1.91501 2.9612,-4.56429 l 0.64928,-0.86538 -0.43756,-0.2932 q -2.78756,2.82022 -4.93025,4.38799 z"
         style="font-style:normal;font-variant:normal;font-weight:normal;font-stretch:normal;font-size:45px;font-family:'Patua One';-inkscape-font-specification:'Patua One';letter-spacing:5px;writing-mode:lr-tb;fill:#ffffff;stroke:none"
         id="path13148" />
      <path
         inkscape:connector-curvature="0"
         d="m 266.6378,459.30898 q -0.85887,-1.32938 -2.0902,-2.45012 -1.23133,-1.12074 -2.57226,-1.18511 -1.27737,-0.0674 -2.30724,1.06412 -0.99958,1.09822 -1.00935,2.24545 -0.01,1.14724 1.23012,3.12766 l 2.1743,3.56109 q 1.76,2.87976 1.79466,5.64952 0.0982,2.76676 -2.50673,5.62876 -3.08961,3.39447 -7.33939,3.11646 -4.2165,-0.24772 -7.84392,-3.54936 -1.99675,-1.81741 -3.67226,-4.25518 -1.61194,-2.44075 -2.16154,-4.64476 0.18175,-0.19967 0.69668,-0.76542 0.51493,-0.56574 1.98979,-1.71815 1.47485,-1.15242 2.69503,-1.6239 l 3.16152,2.87757 q -0.40654,1.5163 -1.88179,3.33769 0.71041,1.55934 2.24125,2.9527 1.56412,1.42364 3.22888,1.6002 1.66476,0.17657 2.90666,-1.18787 0.57552,-0.63231 0.83916,-1.12253 0.29394,-0.52349 0.18553,-1.47405 -0.0448,-0.95354 -0.73731,-2.13147 l -2.51904,-4.11827 q -3.86176,-6.25313 0.83323,-11.41139 2.75641,-3.0284 6.58851,-2.82632 3.86239,0.16881 7.38997,3.37958 3.56087,3.24105 5.50141,7.92806 -0.18175,0.19967 -0.69668,0.76542 -0.51493,0.56574 -1.98979,1.71816 -1.47485,1.15241 -2.69503,1.62389 l -3.16152,-2.87757 q 0.16123,-1.31364 1.72735,-3.23486 z"
         style="font-style:normal;font-variant:normal;font-weight:normal;font-stretch:normal;font-size:45px;font-family:'Patua One';-inkscape-font-specification:'Patua One';letter-spacing:5px;writing-mode:lr-tb;fill:#ffffff;stroke:none"
         id="path13150" />
      <path
         inkscape:connector-curvature="0"
         d="m 292.39414,506.07593 -18.42461,-9.23612 1.27151,-3.54062 q 0.8658,-0.42172 2.87805,-0.2184 l 9.21595,-18.38438 q -1.34687,-1.43024 -1.52691,-2.4769 l 2.07608,-3.1373 9.41344,4.71889 -1.27151,3.54062 q -1.02681,0.44168 -2.89821,0.25862 l -9.35712,18.66598 6.35609,3.18626 q 1.57161,-1.82971 2.98075,-2.23075 l 2.79541,1.85435 -3.50892,6.99975 z"
         style="font-style:normal;font-variant:normal;font-weight:normal;font-stretch:normal;font-size:45px;font-family:'Patua One';-inkscape-font-specification:'Patua One';letter-spacing:5px;writing-mode:lr-tb;fill:#ffffff;stroke:none"
         id="path13152" />
      <path
         inkscape:connector-curvature="0"
         d="m 322.81611,482.95965 1.72499,27.41163 q 1.64233,1.15347 2.14034,2.22455 l -1.42739,3.4807 -10.15056,-2.80124 0.55982,-3.72012 q 0.71208,-0.55041 2.4413,-0.72675 l -0.16565,-3.96701 -8.6757,-2.39422 -2.05412,3.21438 q 1.35065,1.02629 1.86064,2.05399 l -1.42739,3.4807 -9.89029,-2.72941 0.55981,-3.72013 q 1.05615,-0.78222 3.36126,-0.84631 l 15.20009,-22.6008 5.94285,1.64004 z m -5.27637,5.07939 q -0.73024,2.64608 -2.78436,5.86046 l -3.17618,4.91206 6.20313,1.71187 -0.18791,-5.74708 q -0.15973,-3.31183 0.39249,-5.82031 l 0.16013,-0.74941 -0.6073,-0.16759 z"
         style="font-style:normal;font-variant:normal;font-weight:normal;font-stretch:normal;font-size:45px;font-family:'Patua One';-inkscape-font-specification:'Patua One';letter-spacing:5px;writing-mode:lr-tb;fill:#ffffff;stroke:none"
         id="path13154" />
      <path
         inkscape:connector-curvature="0"
         d="m 343.91329,517.74287 -11.45478,-0.68095 -0.22757,-3.75512 q 0.62937,-0.72893 2.55876,-1.33551 l 1.22036,-20.52876 q -1.80169,-0.7833 -2.37984,-1.67417 l 0.67084,-3.70172 10.01732,0.5955 q 7.23223,0.42993 11.21445,4.7238 4.02713,4.29655 3.55981,12.15767 -0.46464,7.8162 -4.54412,11.22513 -4.03189,3.36667 -10.63523,2.97413 z m -2.6737,-5.0726 3.23429,0.19226 q 3.36905,0.20028 5.42081,-1.70632 2.09935,-1.94886 2.44917,-7.83347 0.66759,-11.23017 -7.82242,-11.73487 l -2.02143,-0.12017 -1.26042,21.20257 z"
         style="font-style:normal;font-variant:normal;font-weight:normal;font-stretch:normal;font-size:45px;font-family:'Patua One';-inkscape-font-specification:'Patua One';letter-spacing:5px;writing-mode:lr-tb;fill:#ffffff;stroke:none"
         id="path13156" />
      <path
         inkscape:connector-curvature="0"
         d="m 373.21095,485.77442 0.83903,3.66726 q -0.62641,0.92576 -2.30098,1.781 l 2.15567,20.45171 q 1.86555,0.52735 2.61702,1.21738 l -0.056,3.7616 -10.47199,1.10378 -0.83903,-3.66726 q 0.50159,-0.8221 2.30571,-1.73625 l -2.15567,-20.45171 q -1.9056,-0.47788 -2.62175,-1.26213 l 0.056,-3.7616 10.47199,-1.10378 z"
         style="font-style:normal;font-variant:normal;font-weight:normal;font-stretch:normal;font-size:45px;font-family:'Patua One';-inkscape-font-specification:'Patua One';letter-spacing:5px;writing-mode:lr-tb;fill:#ffffff;stroke:none"
         id="path13158" />
      <path
         inkscape:connector-curvature="0"
         d="m 405.39718,510.11251 -20.18958,5.32498 -1.38765,-3.49673 q 0.37056,-0.8889 2.01445,-2.06709 l -5.24466,-19.88499 q -1.95613,-0.18216 -2.78335,-0.84822 l -0.51741,-3.72626 19.84148,-5.23317 1.99687,7.57109 -3.1166,1.24085 q -1.2303,-0.60629 -2.45919,-2.79527 l -6.78788,1.7903 1.97392,7.48406 6.04817,-1.5952 q 0.17786,-1.44307 0.6058,-2.11441 l 2.82159,-0.41842 2.04277,7.74514 -2.64944,1.0711 q -0.68042,-0.28593 -1.56981,-1.5406 l -6.04817,1.5952 2.19197,8.3108 7.13597,-1.88211 q -0.0311,-2.41181 0.7607,-3.64451 l 3.32318,-0.45763 1.99687,7.57109 z"
         style="font-style:normal;font-variant:normal;font-weight:normal;font-stretch:normal;font-size:45px;font-family:'Patua One';-inkscape-font-specification:'Patua One';letter-spacing:5px;writing-mode:lr-tb;fill:#ffffff;stroke:none"
         id="path13160" />
      <path
         inkscape:connector-curvature="0"
         d="m 414.25366,477.81699 q -1.55639,0.28736 -3.06184,0.99858 -1.50546,0.71122 -2.07606,1.9264 -0.54914,1.15527 0.10441,2.53866 0.63433,1.3427 1.69125,1.789 1.05691,0.44629 3.36042,0.0548 l 4.12101,-0.65288 q 3.33319,-0.52955 5.90708,0.49408 2.59536,0.96372 4.24846,4.46289 1.96065,4.15017 0.0839,7.9732 -1.83612,3.8038 -6.27111,5.89901 -2.44127,1.15333 -5.33363,1.77322 -2.8709,0.55999 -5.11801,0.22805 -0.11534,-0.24412 -0.44211,-0.93582 -0.32678,-0.69169 -0.83007,-2.49446 -0.50329,-1.80276 -0.47412,-3.11053 l 3.86536,-1.8261 q 1.24689,0.95377 2.3685,3.01188 1.71241,-0.0625 3.58406,-0.94667 1.91233,-0.90344 2.71009,-2.37524 0.79775,-1.4718 0.01,-3.14001 -0.36522,-0.77307 -0.71795,-1.20366 -0.37195,-0.47127 -1.29207,-0.73335 -0.89865,-0.32199 -2.2516,-0.13074 l -4.76752,0.75924 q -7.25301,1.18691 -10.23243,-5.11972 -1.74921,-3.70261 -0.1018,-7.16842 1.62819,-3.50649 5.94111,-5.54404 4.35361,-2.05676 9.42645,-2.0644 0.11533,0.24413 0.44211,0.93583 0.32677,0.69169 0.83006,2.49445 0.50329,1.80277 0.47412,3.11054 l -3.86535,1.8261 q -1.15303,-0.64974 -2.33231,-2.82991 z"
         style="font-style:normal;font-variant:normal;font-weight:normal;font-stretch:normal;font-size:45px;font-family:'Patua One';-inkscape-font-specification:'Patua One';letter-spacing:5px;writing-mode:lr-tb;fill:#ffffff;stroke:none"
         id="path13162" />
      <path
         inkscape:connector-curvature="0"
         d="m 452.52744,470.37371 -1.51346,1.34539 3.52792,3.96861 q 2.93352,-1.64441 4.22655,-1.40902 l 2.14518,3.09046 -9.08072,8.07235 -2.81783,-2.4925 q -0.071,-0.96042 0.86316,-2.75424 L 436.21502,464.8248 q -1.82738,0.72131 -2.86629,0.50087 l -2.14518,-3.09046 8.91256,-7.92287 q 4.73469,-4.0885 8.48667,-4.47356 3.75571,-0.44858 7.46302,3.72182 6.78676,7.63454 -3.53836,16.81311 z m -9.6906,-11.91709 -2.01794,1.79386 6.93624,7.8027 2.25337,-2.00314 q 2.287,-2.03304 2.58963,-3.92773 0.33626,-1.9246 -1.63698,-4.14433 -2.00314,-2.25336 -3.90529,-1.88706 -1.89841,0.30277 -4.21903,2.3657 z"
         style="font-style:normal;font-variant:normal;font-weight:normal;font-stretch:normal;font-size:45px;font-family:'Patua One';-inkscape-font-specification:'Patua One';letter-spacing:5px;writing-mode:lr-tb;fill:#ffffff;stroke:none"
         id="path13164" />
      <path
         inkscape:connector-curvature="0"
         d="m 457.69105,435.34022 3.17809,2.01308 q 0.20711,1.09842 -0.37968,2.88485 l 15.93191,13.0036 q 1.69596,-0.93921 2.71543,-0.97842 l 2.609,2.71032 -6.6583,8.1577 -3.17808,-2.01308 q -0.22275,-0.93693 0.41454,-2.8564 l -15.93191,-13.0036 q -1.68956,1.00253 -2.75029,0.94997 l -2.609,-2.71033 6.65829,-8.15769 z"
         style="font-style:normal;font-variant:normal;font-weight:normal;font-stretch:normal;font-size:45px;font-family:'Patua One';-inkscape-font-specification:'Patua One';letter-spacing:5px;writing-mode:lr-tb;fill:#ffffff;stroke:none"
         id="path13166" />
      <path
         inkscape:connector-curvature="0"
         d="m 472.98072,421.13864 q -1.18632,0.87026 -2.54888,3.20123 -1.36257,2.33097 -0.18264,4.94929 1.17993,2.61832 6.23036,5.57054 5.05044,2.95222 7.98199,2.84151 2.91541,-0.17228 4.50507,-2.89174 2.4299,-4.1569 3.11701,-8.18581 l 4.27515,0.62256 q 0.0403,5.54874 -3.20712,11.10421 -3.24744,5.55548 -7.84765,6.20239 -4.57751,0.60806 -11.72581,-3.57047 -7.14831,-4.17853 -8.79574,-9.20722 -1.62471,-5.06753 1.60002,-10.58416 2.58887,-4.42884 7.37546,-6.99965 0.2331,0.13626 0.89354,0.52232 0.66044,0.38605 2.0943,1.58909 1.43387,1.20303 2.14873,2.29852 l -2.15739,3.6907 q -1.36687,-0.0693 -3.7564,-1.15331 z"
         style="font-style:normal;font-variant:normal;font-weight:normal;font-stretch:normal;font-size:45px;font-family:'Patua One';-inkscape-font-specification:'Patua One';letter-spacing:5px;writing-mode:lr-tb;fill:#ffffff;stroke:none"
         id="path13168" />
      <path
         inkscape:connector-curvature="0"
         d="m 487.94901,409.53476 11.22991,3.73581 q 1.12336,-1.38101 2.36113,-1.82289 l 3.14579,1.52075 -2.7841,8.36906 -3.42989,-0.66676 q -0.7264,-1.0953 -0.79862,-2.87403 l -19.72707,-6.56254 q -1.22288,1.5376 -2.38954,1.90829 l -3.1458,-1.52075 2.92616,-8.79605 19.39404,-2.98577 q 2.10587,-0.34279 5.39312,-0.24515 l 1.12421,0.042 -0.0146,-0.52651 q -3.9137,-0.63802 -6.43296,-1.47609 l -11.05911,-3.67899 q -1.10916,1.33831 -2.40383,1.80868 l -3.14579,-1.52075 2.7841,-8.36906 3.42989,0.66677 q 0.7549,1.15219 0.84132,2.88823 l 24.55209,8.16766 -2.23013,6.70379 -19.55055,3.02855 q -2.10587,0.34279 -5.43581,0.23094 l -1.08152,-0.0278 0.0145,0.52651 q 3.9137,0.63801 6.43296,1.47609 z"
         style="font-style:normal;font-variant:normal;font-weight:normal;font-stretch:normal;font-size:45px;font-family:'Patua One';-inkscape-font-specification:'Patua One';letter-spacing:5px;writing-mode:lr-tb;fill:#ffffff;stroke:none"
         id="path13170" />
      <path
         inkscape:connector-curvature="0"
         d="m 482.56675,372.26339 3.76023,0.11572 q 0.73724,0.84018 1.14117,2.67662 l 20.33201,3.08682 q 0.98203,-1.67153 1.83968,-2.22406 l 3.62514,1.00553 -1.58056,10.4107 -3.76023,-0.11572 q -0.66853,-0.6932 -1.09668,-2.66986 l -20.33201,-3.08683 q -0.94429,1.72278 -1.88417,2.21731 l -3.62514,-1.00553 1.58056,-10.4107 z"
         style="font-style:normal;font-variant:normal;font-weight:normal;font-stretch:normal;font-size:45px;font-family:'Patua One';-inkscape-font-specification:'Patua One';letter-spacing:5px;writing-mode:lr-tb;fill:#ffffff;stroke:none"
         id="path13172" />
      <path
         inkscape:connector-curvature="0"
         d="m 488.53836,352.20403 q -0.58124,1.35162 -0.57373,4.05161 0.008,2.69999 2.35214,4.35847 2.34463,1.65848 8.1946,1.6422 5.84998,-0.0163 8.32059,-1.59816 2.42548,-1.62676 2.41671,-4.77675 -0.0134,-4.81498 -1.46404,-8.63596 l 4.00048,-1.63114 q 2.84826,4.76209 2.86617,11.19707 0.0179,6.43497 -3.61906,9.32511 -3.63709,2.84513 -11.91706,2.86817 -8.27997,0.023 -12.24972,-3.47591 -3.96988,-3.54397 -3.98767,-9.93394 -0.0143,-5.12998 2.80781,-9.77286 0.27,-7.5e-4 1.035,-0.003 0.765,-0.002 2.61087,0.30774 1.84587,0.30986 3.01749,0.8916 l 0.0119,4.27499 q -1.21324,0.63337 -3.82248,0.91064 z"
         style="font-style:normal;font-variant:normal;font-weight:normal;font-stretch:normal;font-size:45px;font-family:'Patua One';-inkscape-font-specification:'Patua One';letter-spacing:5px;writing-mode:lr-tb;fill:#ffffff;stroke:none"
         id="path13174" />
    </g>
    <g
       transform="matrix(1.0610117,0,0,1.0610117,-5.3237949,42.093391)"
       style="font-style:normal;font-variant:normal;font-weight:normal;font-stretch:normal;font-size:15px;line-height:125%;font-family:'Patua One';-inkscape-font-specification:'Patua One';letter-spacing:0px;word-spacing:0px;writing-mode:lr-tb;fill:#ffffff;fill-opacity:1;stroke:none;stroke-width:1px;stroke-linecap:butt;stroke-linejoin:miter;stroke-opacity:1"
       id="text4161">
      <path
         inkscape:connector-curvature="0"
         d="m 220.42157,272.72076 q 2.89278,-4.45286 4.75812,-6.08514 1.85212,-1.69454 3.17069,-2.07216 2.91066,-0.84588 6.34464,1.38499 2.56605,1.66703 3.07835,5.91718 4.0535,-2.35724 8.88371,0.78069 3.77361,2.45151 4.00468,6.14333 0.21785,3.62956 -2.78043,8.65783 l -6.9868,10.75478 -3.37724,-1.6574 q -0.32282,-0.90732 0.10304,-2.88448 l -17.24538,-11.20339 q -1.57116,1.17945 -2.63136,1.24197 l -2.88694,-2.41211 5.56492,-8.56609 z m 16.00507,7.66086 -2.18184,3.35851 7.16985,4.65787 1.69154,-2.60379 q 1.66703,-2.56606 1.77034,-4.37712 0.1033,-1.81106 -1.85897,-3.08585 -1.96228,-1.27478 -3.51663,-0.78202 -1.52984,0.45503 -3.07429,2.8324 z m -11.54863,-5.51702 -1.27478,1.96227 6.52834,4.24111 2.01024,-3.09435 q 1.25027,-1.92454 0.93103,-3.58081 -0.31923,-1.65626 -1.71546,-2.56332 -1.43397,-0.93158 -2.61674,-0.68038 -1.18277,0.2512 -1.9466,1.09654 -0.76382,0.84534 -1.91603,2.61894 z"
         style="font-style:normal;font-variant:normal;font-weight:normal;font-stretch:normal;font-size:45px;font-family:'Patua One';-inkscape-font-specification:'Patua One';letter-spacing:5px;fill:#ffffff;stroke:none"
         id="path13078" />
      <path
         inkscape:connector-curvature="0"
         d="m 249.96251,238.04166 24.04861,13.26791 q 1.85507,-0.76579 3.02603,-0.61059 l 2.16936,3.07353 -7.81482,7.05758 -2.83729,-2.47031 q -0.0818,-0.89628 0.69822,-2.44961 l -3.4352,-1.99099 -6.67934,6.03213 1.6081,3.45914 q 1.59113,-0.58807 2.73192,-0.46626 l 2.16937,3.07353 -7.61444,6.87662 -2.8373,-2.47031 q -0.0925,-1.31102 1.09148,-3.28984 l -10.90004,-24.96052 4.57534,-4.13201 z m 1.45056,7.17887 q 1.8398,2.03719 3.4479,5.49634 l 2.43744,5.31745 4.77573,-4.31297 -4.94867,-2.92829 q -2.87937,-1.64407 -4.69872,-3.4572 l -0.54612,-0.53758 -0.46756,0.42225 z"
         style="font-style:normal;font-variant:normal;font-weight:normal;font-stretch:normal;font-size:45px;font-family:'Patua One';-inkscape-font-specification:'Patua One';letter-spacing:5px;fill:#ffffff;stroke:none"
         id="path13080" />
      <path
         inkscape:connector-curvature="0"
         d="m 303.58072,240.17266 -18.02973,9.98504 -2.20318,-3.04938 q 0.14114,-0.95264 1.4457,-2.49816 l -9.96325,-17.99036 q -1.94103,0.30337 -2.90639,-0.13937 l -1.41585,-3.48541 9.21169,-5.10153 2.20318,3.04938 q -0.21563,1.09678 -1.42389,2.53753 l 10.11585,18.26592 6.21986,-3.44462 q -0.62191,-2.33046 -0.15675,-3.71976 l 3.10931,-1.259 3.79345,6.84972 z"
         style="font-style:normal;font-variant:normal;font-weight:normal;font-stretch:normal;font-size:45px;font-family:'Patua One';-inkscape-font-specification:'Patua One';letter-spacing:5px;fill:#ffffff;stroke:none"
         id="path13082" />
      <path
         inkscape:connector-curvature="0"
         d="m 320.87752,202.42024 1.84464,6.16494 -2.61282,1.15756 q -0.68945,-0.26342 -1.61957,-1.48819 l -5.17338,1.54795 5.98541,20.00373 q 1.93085,0.1738 2.79682,0.71321 l 0.63955,3.70724 -10.08809,3.01851 -1.50178,-3.44926 q 0.34116,-0.90059 1.94544,-2.13216 l -5.98541,-20.00373 -5.17337,1.54795 q -0.10456,1.53437 -0.53601,2.13318 l -2.81922,0.46778 -1.84464,-6.16494 24.14243,-7.22377 z"
         style="font-style:normal;font-variant:normal;font-weight:normal;font-stretch:normal;font-size:45px;font-family:'Patua One';-inkscape-font-specification:'Patua One';letter-spacing:5px;fill:#ffffff;stroke:none"
         id="path13084" />
      <path
         inkscape:connector-curvature="0"
         d="m 344.61515,199.5186 0.80136,3.67567 q -0.63587,0.91929 -2.31913,1.75731 l 1.94576,20.47275 q 1.86004,0.54646 2.6044,1.24416 l -0.0946,3.76082 -10.48276,0.9963 -0.80137,-3.67567 q 0.51,-0.81692 2.3234,-1.71251 l -1.94576,-20.47274 q -1.90059,-0.49741 -2.60866,-1.28897 l 0.0946,-3.76082 10.48277,-0.9963 z"
         style="font-style:normal;font-variant:normal;font-weight:normal;font-stretch:normal;font-size:45px;font-family:'Patua One';-inkscape-font-specification:'Patua One';letter-spacing:5px;fill:#ffffff;stroke:none"
         id="path13086" />
      <path
         inkscape:connector-curvature="0"
         d="m 387.6124,216.90147 q 0.28906,-1.77664 1.20699,-5.457 l 0.26227,-1.05153 -0.43694,-0.11668 q -1.63581,3.60915 -2.75221,5.7071 l -8.73287,16.40552 -5.90732,-0.96112 -3.39269,-18.37834 q -0.51871,-2.13603 -0.70078,-5.22029 l -0.10029,-1.06493 -0.45138,-0.0279 q -0.24341,4.01806 -0.66978,6.6386 l -1.90055,11.6814 q 1.54222,0.88921 2.17549,2.04085 l -1.00059,3.34776 -8.70553,-1.41638 0.11228,-3.4923 q 0.96569,-0.89149 2.71025,-1.24593 l 3.33863,-20.52018 q -1.71266,-0.96252 -2.26433,-2.0553 l 1.00059,-3.34776 10.12684,1.64763 3.57247,18.9547 q 0.7667,3.13379 0.72458,5.63448 l 0.0104,0.77675 0.62183,0.10117 q 0.61848,-2.68046 2.59622,-5.86925 l 9.08609,-16.89515 9.94917,1.61872 -0.11227,3.4923 q -0.86964,0.86153 -2.79909,1.23148 l -3.30972,20.34251 q 1.62382,0.94808 2.18995,1.95202 l -1.04396,3.61426 -10.12684,-1.64763 0.14841,-3.71438 q 0.85519,-0.77269 2.69581,-1.1571 l 1.87888,-11.54815 z"
         style="font-style:normal;font-variant:normal;font-weight:normal;font-stretch:normal;font-size:45px;font-family:'Patua One';-inkscape-font-specification:'Patua One';letter-spacing:5px;fill:#ffffff;stroke:none"
         id="path13088" />
      <path
         inkscape:connector-curvature="0"
         d="m 411.9696,244.55563 q -5.6883,-2.91124 -6.85132,-7.65165 -1.12296,-4.71991 2.62884,-12.05061 3.7723,-7.37077 8.64044,-9.27723 4.92871,-1.92602 10.65707,1.00571 5.76843,2.95224 6.97339,7.51191 1.24503,4.58018 -2.50677,11.91089 -3.7518,7.3307 -8.80257,9.39645 -5.05077,2.06576 -10.73908,-0.84547 z m 7.20571,-23.66031 q -2.50819,1.34498 -5.1529,6.51253 -2.64471,5.16755 -2.33208,8.31006 0.31262,3.14251 2.95648,4.49562 2.68392,1.37361 5.29368,-0.071 2.63025,-1.48471 5.27496,-6.65226 4.9204,-9.61404 -0.84803,-12.56627 -2.68392,-1.37361 -5.19211,-0.0286 z"
         style="font-style:normal;font-variant:normal;font-weight:normal;font-stretch:normal;font-size:45px;font-family:'Patua One';-inkscape-font-specification:'Patua One';letter-spacing:5px;fill:#ffffff;stroke:none"
         id="path13090" />
      <path
         inkscape:connector-curvature="0"
         d="m 463.41655,254.95628 q -2.0535,2.26865 -4.87721,2.50478 -2.79035,0.26634 -5.65031,-0.86566 1.03395,2.21053 0.6618,3.69458 l -1.76213,6.84187 q 1.08486,1.95313 1.01785,3.16711 l -2.65891,2.26692 -5.63825,-5.10354 3.56195,-11.64662 q 0.58354,-1.71759 -0.11707,-2.35175 l -2.16856,-1.9629 -4.83175,5.33799 q 1.95228,2.73828 1.85824,4.04919 l -2.8401,2.4671 -9.00786,-8.15359 2.17285,-3.07107 q 0.94709,-0.17458 2.83148,0.55996 l 13.80071,-15.24663 q -0.91489,-1.73858 -0.80819,-2.79524 l 2.8401,-2.4671 8.50742,7.70061 q 4.61034,4.29451 5.58045,7.78259 0.97012,3.48808 -2.47251,7.2914 z m -6.63311,-11.64887 -1.96839,-1.78171 -5.73771,6.33886 1.90166,1.72131 q 2.26865,2.0535 3.97358,2.3828 1.76849,0.32614 3.36901,-1.44207 1.60052,-1.76821 1.10036,-3.49557 -0.46995,-1.76072 -2.63851,-3.72362 z"
         style="font-style:normal;font-variant:normal;font-weight:normal;font-stretch:normal;font-size:45px;font-family:'Patua One';-inkscape-font-specification:'Patua One';letter-spacing:5px;fill:#ffffff;stroke:none"
         id="path13092" />
      <path
         inkscape:connector-curvature="0"
         d="m 466.34472,295.9023 -11.59652,-17.36361 2.85607,-2.4486 q 0.96107,0.0616 2.6095,1.23344 l 17.10166,-11.42157 q -0.46336,-1.90917 -0.10225,-2.90793 l 3.35592,-1.70016 11.39657,17.06424 -6.51135,4.3487 -2.18624,-2.54427 q 0.1736,-1.36055 1.84447,-3.23404 l -3.89882,-5.83777 -6.43652,4.29871 3.47396,5.2016 q 1.42256,-0.30072 2.19652,-0.11415 l 1.31257,2.53251 -6.66104,4.44867 -1.8739,-2.15762 q 0.0493,-0.73641 0.9469,-1.98523 l -3.47396,-5.2016 -7.14752,4.77357 4.09876,6.13714 q 2.27083,-0.81313 3.69392,-0.46485 l 1.51265,2.99413 -6.51135,4.34869 z"
         style="font-style:normal;font-variant:normal;font-weight:normal;font-stretch:normal;font-size:45px;font-family:'Patua One';-inkscape-font-specification:'Patua One';letter-spacing:5px;fill:#ffffff;stroke:none"
         id="path13094" />
      <text
         xml:space="preserve"
         style="font-style:normal;font-weight:normal;font-size:14.13745022px;line-height:125%;font-family:sans-serif;letter-spacing:0px;word-spacing:0px;writing-mode:tb-rl;fill:#000000;fill-opacity:1;stroke:none;stroke-width:1px;stroke-linecap:butt;stroke-linejoin:miter;stroke-opacity:1"
         x="191.74106"
         y="309.78104"
         id="text4681"
         sodipodi:linespacing="125%"><tspan
           sodipodi:role="line"
           id="tspan4683"
           x="309.78104"
           y="191.74106"></tspan></text>
      <flowRoot
         xml:space="preserve"
         id="flowRoot4685"
         style="font-style:normal;font-weight:normal;font-size:15px;line-height:125%;font-family:sans-serif;letter-spacing:0px;word-spacing:0px;writing-mode:tb-rl;fill:#000000;fill-opacity:1;stroke:none;stroke-width:1px;stroke-linecap:butt;stroke-linejoin:miter;stroke-opacity:1"
         transform="matrix(0.94249668,0,0,0.94249668,184.72272,188.28443)"><flowRegion
           id="flowRegion4687"><rect
             id="rect4689"
             width="49.931927"
             height="27.032806"
             x="24.748737"
             y="135.14005" /></flowRegion><flowPara
           id="flowPara4691"
           style="font-style:normal;font-variant:normal;font-weight:bold;font-stretch:normal;font-family:'Liberation Mono';-inkscape-font-specification:'Liberation Mono Bold';writing-mode:lr-tb" /></flowRoot>    </g>
    <path
       inkscape:connector-curvature="0"
       style="fill:#ffffff;fill-rule:evenodd;stroke:none;stroke-width:1px;stroke-linecap:butt;stroke-linejoin:miter;stroke-opacity:1"
       d="m 263.22581,371.64857 -10.73438,5.7793 c -4.54685,12.05468 -7.22362,24.73377 -7.9375,37.59766 l 11.03516,2.45312 22.91406,0 26.73438,0 0,-5.72851 -24.82422,0 0.63671,-1.91016 35.64454,0 0,-7.63867 -33.09961,0 0.63672,-1.91016 38.19141,0 0,-7.63672 -38.19141,0 0,-1.90234 36.34766,0.14844 -0.13477,-7.9668 -38.12305,0.17187 -17.18555,0 5.72852,-3.81835 13.36719,0 0,-7.63868 z"
       id="path4253-7-2"
       sodipodi:nodetypes="ccccccccccccccccccccccccc" />
    <path
       inkscape:connector-curvature="0"
       style="fill:#a780b9;fill-rule:evenodd;stroke:none;stroke-width:1px;stroke-linecap:butt;stroke-linejoin:miter;stroke-opacity:1"
       d="m 255.58909,425.99818 -11.0625,2.45899 c 0.65555,12.80388 3.25562,25.43346 7.71093,37.45508 l 10.98829,5.91601 21.00586,0 0,-7.63672 -13.36719,0 -5.72852,-3.82031 17.18555,0 38.12305,0.17187 0.13477,-7.96679 -36.34766,0.14844 0,-1.9004 38.19141,0 0,-7.63867 -38.19141,0 -0.63672,-1.91015 33.09961,0 0,-7.63868 -35.64453,0 -0.63672,-1.9082 24.82422,0 0,-5.73047 -26.73438,0 z"
       id="path4253-7"
       sodipodi:nodetypes="ccccccccccccccccccccccccc" />
    <path
       inkscape:connector-curvature="0"
       style="fill:#a780b9;fill-rule:evenodd;stroke:none;stroke-width:1px;stroke-linecap:butt;stroke-linejoin:miter;stroke-opacity:1"
       d="m 456.97386,371.64857 0,7.63868 13.35742,0 5.72461,3.81835 -17.17383,0 -38.09766,-0.17187 -0.13476,7.9668 36.32422,-0.14844 0,1.90234 -38.16602,0 0,7.63672 38.16602,0 0.63672,1.91016 -33.07813,0 0,7.63867 35.6211,0 0.63671,1.91016 -24.80859,0 0,5.72851 26.7168,0 22.90039,0 10.80664,-2.4043 c -0.71159,-12.93285 -3.40582,-25.67938 -7.98828,-37.79296 l -10.45313,-5.63282 z"
       id="path4253-7-5-3"
       sodipodi:nodetypes="ccccccccccccccccccccccccc" />
    <path
       inkscape:connector-curvature="0"
       style="fill:#ffffff;fill-rule:evenodd;stroke:none;stroke-width:1px;stroke-linecap:butt;stroke-linejoin:miter;stroke-opacity:1"
       d="m 436.14573,425.99818 0,5.73047 24.82422,0 -0.63672,1.9082 -35.64648,0 0,7.63868 33.09961,0 -0.63672,1.91015 -38.19141,0 0,7.63867 38.19141,0 0,1.9004 -36.34766,-0.14844 0.13477,7.96679 38.12304,-0.17187 17.18555,0 -5.72851,3.82031 -13.36719,0 0,7.63672 21.00586,0 10.46484,-5.63477 c 4.5268,-12.13478 7.1624,-24.89383 7.81445,-37.83007 l -10.64062,-2.36524 -22.91602,0 z"
       id="path4253-7-5"
       sodipodi:nodetypes="ccccccccccccccccccccccccc" />
    <g
       id="g5628">
      <g
         style="fill:#f8a7b8;stroke:#f8a7b8;stroke-width:1.53248703;stroke-miterlimit:4;stroke-dasharray:none;stroke-opacity:1"
         inkscape:label="Layer 1"
         id="layer1-3-5"
         transform="matrix(0.97880108,0,0,0.97880108,-37.59339,163.09225)">
        <g
           id="g5172-4-6"
           transform="matrix(1.20974,0,0,1.20974,-32.810996,-87.311858)"
           style="fill:#f8a7b8;stroke:#f8a7b8;stroke-width:1.26679051;stroke-miterlimit:4;stroke-dasharray:none;stroke-opacity:1">
          <path
             id="path4869-77"
             d="m 340.1223,269.74037 0,5 0,10 5,0 0,-6.46289 5.60547,5.60742 -3.53321,3.5332 3.53516,3.53516 3.5332,-3.5332 5.41602,5.41601 a 15.068908,15.068908 0 0 0 -2.80469,8.72461 15.068908,15.068908 0 0 0 12.56836,14.85742 l 0,7.64258 -5,0 0,5 5,0 0,10 5,0 0,-10 5,0 0,-5 -5,0 0,-7.6582 a 15.068908,15.068908 0 0 0 12.56836,-14.8418 15.068908,15.068908 0 0 0 -2.80078,-8.73047 l 14.55273,-14.55273 0,6.46289 5,0 0,-10 0,-5 -5,0 -10,0 0,5 6.46289,0 -14.55664,14.55664 a 15.068908,15.068908 0 0 0 -8.72656,-2.80469 15.068908,15.068908 0 0 0 -8.73047,2.80078 l -5.41016,-5.41211 3.53321,-3.5332 -3.53516,-3.53516 -3.5332,3.53321 -5.60742,-5.60547 6.46289,0 0,-5 -10,0 -5,0 z m 31.82031,21.82031 a 9.9997749,9.9997749 0 0 1 10,10 9.9997749,9.9997749 0 0 1 -10,10 9.9997749,9.9997749 0 0 1 -10,-10 9.9997749,9.9997749 0 0 1 10,-10 z"
             style="opacity:1;fill:#f8a7b8;fill-opacity:1;fill-rule:evenodd;stroke:#f8a7b8;stroke-width:1.26679051;stroke-linecap:square;stroke-miterlimit:4;stroke-dasharray:none;stroke-dashoffset:0;stroke-opacity:1"
             inkscape:connector-curvature="0"
             inkscape:transform-center-x="0.26795363"
             inkscape:transform-center-y="2.1078751" />
          <path
             id="path4869-7-9-4"
             d="m 359.67894,292.83607 c -1.818,2.5465 -2.79824,5.59576 -2.80469,8.72461 10e-4,7.35639 5.31396,13.63669 12.56836,14.85742 l 0,7.64258 -5,0 0,5 5,0 0,10 5,0 0,-10 5,0 0,-5 -5,0 0,-7.6582 c 7.24859,-1.21974 12.55949,-7.49131 12.56836,-14.8418 -0.004,-3.13043 -0.98301,-6.18188 -2.80078,-8.73047 -1.12877,-1.46137 -2.33009,-2.52374 -3.54102,-3.5332 -2.54704,-1.81839 -5.59704,-2.79865 -8.72656,-2.80469 -3.13043,0.004 -6.18188,0.98301 -8.73047,2.80078 -1.39254,0.96618 -2.55724,2.16021 -3.5332,3.54297 z m 12.26367,-1.27539 c 5.5229,-1.2e-4 10.00012,4.4771 10,10 1.2e-4,5.5229 -4.4771,10.00012 -10,10 -5.5229,1.2e-4 -10.00012,-4.4771 -10,-10 -1.2e-4,-5.5229 4.4771,-10.00012 10,-10 z"
             style="opacity:1;fill:#f8a7b8;fill-opacity:1;fill-rule:evenodd;stroke:#f8a7b8;stroke-width:1.26679051;stroke-linecap:square;stroke-miterlimit:4;stroke-dasharray:none;stroke-dashoffset:0;stroke-opacity:1"
             inkscape:connector-curvature="0"
             inkscape:transform-center-y="2.1078751"
             sodipodi:nodetypes="ccccccccccccccccccccccccc"
             inkscape:transform-center-x="0.26795363" />
        </g>
      </g>
      <g
         inkscape:label="Layer 1"
         id="layer1-2-0"
         transform="matrix(1.1371447,0,0,1.1371447,42.521748,119.07269)"
         style="fill:#a780b9;stroke:#a780b9;stroke-width:1.31909335;stroke-miterlimit:4;stroke-dasharray:none;stroke-opacity:1">
        <path
           id="path4869-7-6"
           d="m 275.83423,268.48323 c -1.89306,2.65163 -2.91377,5.82679 -2.92049,9.08482 8.6e-4,7.66012 5.53336,14.19971 13.08728,15.47085 l 0,7.95813 -5.20644,0 0,5.20644 5.20644,0 0,10.41287 5.20644,0 0,-10.41287 5.20644,0 0,-5.20644 -5.20644,0 0,-7.9744 c 7.54787,-1.27009 13.07805,-7.8006 13.08728,-15.45458 -0.004,-3.25968 -1.0236,-6.43711 -2.91642,-9.09093 -1.17538,-1.52171 -2.42629,-2.62794 -3.68722,-3.67908 -2.6522,-1.89347 -5.82813,-2.9142 -9.08686,-2.92049 -3.25968,0.004 -6.43712,1.0236 -9.09093,2.91642 -1.45003,1.00607 -2.66283,2.2494 -3.67908,3.68926 z m 12.77001,-1.32805 c 5.75093,-1.3e-4 10.413,4.66194 10.41288,10.41287 1.2e-4,5.75093 -4.66195,10.413 -10.41288,10.41288 -5.75092,1.2e-4 -10.413,-4.66195 -10.41288,-10.41288 -1.2e-4,-5.75093 4.66196,-10.413 10.41288,-10.41287 z"
           style="opacity:1;fill:#a780b9;fill-opacity:1;fill-rule:evenodd;stroke:#a780b9;stroke-width:1.31909335;stroke-linecap:square;stroke-miterlimit:4;stroke-dasharray:none;stroke-dashoffset:0;stroke-opacity:1"
           inkscape:connector-curvature="0"
           inkscape:transform-center-y="1.8143553"
           sodipodi:nodetypes="ccccccccccccccccccccccccc"
           inkscape:transform-center-x="0.23064391" />
      </g>
    </g>
  </g>
</svg>
